G04 #@! TF.GenerationSoftware,KiCad,Pcbnew,(5.1.5-0-10_14)*
G04 #@! TF.CreationDate,2020-06-19T17:07:22+01:00*
G04 #@! TF.ProjectId,AIL_Workshop,41494c5f-576f-4726-9b73-686f702e6b69,rev?*
G04 #@! TF.SameCoordinates,Original*
G04 #@! TF.FileFunction,Legend,Top*
G04 #@! TF.FilePolarity,Positive*
%FSLAX46Y46*%
G04 Gerber Fmt 4.6, Leading zero omitted, Abs format (unit mm)*
G04 Created by KiCad (PCBNEW (5.1.5-0-10_14)) date 2020-06-19 17:07:22*
%MOMM*%
%LPD*%
G04 APERTURE LIST*
%ADD10C,0.120000*%
%ADD11C,0.150000*%
G04 APERTURE END LIST*
D10*
X148992335Y-101791392D02*
G75*
G03X145760000Y-101634484I-1672335J-1078608D01*
G01*
X148992335Y-103948608D02*
G75*
G02X145760000Y-104105516I-1672335J1078608D01*
G01*
X148361130Y-101790163D02*
G75*
G03X146279039Y-101790000I-1041130J-1079837D01*
G01*
X148361130Y-103949837D02*
G75*
G02X146279039Y-103950000I-1041130J1079837D01*
G01*
X145760000Y-101634000D02*
X145760000Y-101790000D01*
X145760000Y-103950000D02*
X145760000Y-104106000D01*
X97900000Y-70320000D02*
X97300000Y-70320000D01*
X97900000Y-71920000D02*
X97900000Y-70320000D01*
X97300000Y-71920000D02*
X97900000Y-71920000D01*
X97900000Y-72860000D02*
X97300000Y-72860000D01*
X97900000Y-74460000D02*
X97900000Y-72860000D01*
X97300000Y-74460000D02*
X97900000Y-74460000D01*
X97900000Y-75400000D02*
X97300000Y-75400000D01*
X97900000Y-77000000D02*
X97900000Y-75400000D01*
X97300000Y-77000000D02*
X97900000Y-77000000D01*
X103320000Y-71370000D02*
X102320000Y-71370000D01*
X103320000Y-75950000D02*
X102320000Y-75950000D01*
X101790000Y-71370000D02*
X102320000Y-71120000D01*
X101790000Y-75950000D02*
X101790000Y-71370000D01*
X102320000Y-76200000D02*
X101790000Y-75950000D01*
X102320000Y-71120000D02*
X103320000Y-71120000D01*
X102320000Y-76200000D02*
X102320000Y-71120000D01*
X103320000Y-76200000D02*
X102320000Y-76200000D01*
X98330000Y-77870000D02*
X102330000Y-77870000D01*
X97300000Y-69740000D02*
X97300000Y-77580000D01*
X103320000Y-69740000D02*
X97300000Y-69740000D01*
X103320000Y-77580000D02*
X103320000Y-69740000D01*
X97300000Y-77580000D02*
X103320000Y-77580000D01*
X97300000Y-87740000D02*
X103320000Y-87740000D01*
X103320000Y-87740000D02*
X103320000Y-79900000D01*
X103320000Y-79900000D02*
X97300000Y-79900000D01*
X97300000Y-79900000D02*
X97300000Y-87740000D01*
X98330000Y-88030000D02*
X102330000Y-88030000D01*
X103320000Y-86360000D02*
X102320000Y-86360000D01*
X102320000Y-86360000D02*
X102320000Y-81280000D01*
X102320000Y-81280000D02*
X103320000Y-81280000D01*
X102320000Y-86360000D02*
X101790000Y-86110000D01*
X101790000Y-86110000D02*
X101790000Y-81530000D01*
X101790000Y-81530000D02*
X102320000Y-81280000D01*
X103320000Y-86110000D02*
X102320000Y-86110000D01*
X103320000Y-81530000D02*
X102320000Y-81530000D01*
X97300000Y-87160000D02*
X97900000Y-87160000D01*
X97900000Y-87160000D02*
X97900000Y-85560000D01*
X97900000Y-85560000D02*
X97300000Y-85560000D01*
X97300000Y-84620000D02*
X97900000Y-84620000D01*
X97900000Y-84620000D02*
X97900000Y-83020000D01*
X97900000Y-83020000D02*
X97300000Y-83020000D01*
X97300000Y-82080000D02*
X97900000Y-82080000D01*
X97900000Y-82080000D02*
X97900000Y-80480000D01*
X97900000Y-80480000D02*
X97300000Y-80480000D01*
X147157221Y-97280000D02*
X147482779Y-97280000D01*
X147157221Y-98300000D02*
X147482779Y-98300000D01*
X121295279Y-95625001D02*
X120969721Y-95625001D01*
X121295279Y-96645001D02*
X120969721Y-96645001D01*
X172490000Y-82300000D02*
X172490000Y-72560000D01*
X160900000Y-82300000D02*
X160900000Y-80810000D01*
X169430000Y-82300000D02*
X172490000Y-82300000D01*
X160900000Y-72550000D02*
X165620000Y-72550000D01*
X169430000Y-72560000D02*
X172490000Y-72560000D01*
X160900000Y-82300000D02*
X165620000Y-82300000D01*
X160900000Y-73740000D02*
X160900000Y-72560000D01*
X160900000Y-76640000D02*
X160900000Y-76110000D01*
X160900000Y-79090000D02*
X160900000Y-78260000D01*
X119110000Y-104560000D02*
X123610000Y-104560000D01*
X117860000Y-100560000D02*
X117860000Y-102060000D01*
X123610000Y-98060000D02*
X119110000Y-98060000D01*
X124860000Y-102060000D02*
X124860000Y-100560000D01*
D11*
X96456666Y-60752380D02*
X96123333Y-60276190D01*
X95885238Y-60752380D02*
X95885238Y-59752380D01*
X96266190Y-59752380D01*
X96361428Y-59800000D01*
X96409047Y-59847619D01*
X96456666Y-59942857D01*
X96456666Y-60085714D01*
X96409047Y-60180952D01*
X96361428Y-60228571D01*
X96266190Y-60276190D01*
X95885238Y-60276190D01*
X96885238Y-60228571D02*
X97218571Y-60228571D01*
X97361428Y-60752380D02*
X96885238Y-60752380D01*
X96885238Y-59752380D01*
X97361428Y-59752380D01*
X98123333Y-60228571D02*
X97790000Y-60228571D01*
X97790000Y-60752380D02*
X97790000Y-59752380D01*
X98266190Y-59752380D01*
X98790000Y-59752380D02*
X98790000Y-59990476D01*
X98551904Y-59895238D02*
X98790000Y-59990476D01*
X99028095Y-59895238D01*
X98647142Y-60180952D02*
X98790000Y-59990476D01*
X98932857Y-60180952D01*
X99551904Y-59752380D02*
X99551904Y-59990476D01*
X99313809Y-59895238D02*
X99551904Y-59990476D01*
X99790000Y-59895238D01*
X99409047Y-60180952D02*
X99551904Y-59990476D01*
X99694761Y-60180952D01*
X96456666Y-98852380D02*
X96123333Y-98376190D01*
X95885238Y-98852380D02*
X95885238Y-97852380D01*
X96266190Y-97852380D01*
X96361428Y-97900000D01*
X96409047Y-97947619D01*
X96456666Y-98042857D01*
X96456666Y-98185714D01*
X96409047Y-98280952D01*
X96361428Y-98328571D01*
X96266190Y-98376190D01*
X95885238Y-98376190D01*
X96885238Y-98328571D02*
X97218571Y-98328571D01*
X97361428Y-98852380D02*
X96885238Y-98852380D01*
X96885238Y-97852380D01*
X97361428Y-97852380D01*
X98123333Y-98328571D02*
X97790000Y-98328571D01*
X97790000Y-98852380D02*
X97790000Y-97852380D01*
X98266190Y-97852380D01*
X98790000Y-97852380D02*
X98790000Y-98090476D01*
X98551904Y-97995238D02*
X98790000Y-98090476D01*
X99028095Y-97995238D01*
X98647142Y-98280952D02*
X98790000Y-98090476D01*
X98932857Y-98280952D01*
X99551904Y-97852380D02*
X99551904Y-98090476D01*
X99313809Y-97995238D02*
X99551904Y-98090476D01*
X99790000Y-97995238D01*
X99409047Y-98280952D02*
X99551904Y-98090476D01*
X99694761Y-98280952D01*
X168846666Y-98852380D02*
X168513333Y-98376190D01*
X168275238Y-98852380D02*
X168275238Y-97852380D01*
X168656190Y-97852380D01*
X168751428Y-97900000D01*
X168799047Y-97947619D01*
X168846666Y-98042857D01*
X168846666Y-98185714D01*
X168799047Y-98280952D01*
X168751428Y-98328571D01*
X168656190Y-98376190D01*
X168275238Y-98376190D01*
X169275238Y-98328571D02*
X169608571Y-98328571D01*
X169751428Y-98852380D02*
X169275238Y-98852380D01*
X169275238Y-97852380D01*
X169751428Y-97852380D01*
X170513333Y-98328571D02*
X170180000Y-98328571D01*
X170180000Y-98852380D02*
X170180000Y-97852380D01*
X170656190Y-97852380D01*
X171180000Y-97852380D02*
X171180000Y-98090476D01*
X170941904Y-97995238D02*
X171180000Y-98090476D01*
X171418095Y-97995238D01*
X171037142Y-98280952D02*
X171180000Y-98090476D01*
X171322857Y-98280952D01*
X171941904Y-97852380D02*
X171941904Y-98090476D01*
X171703809Y-97995238D02*
X171941904Y-98090476D01*
X172180000Y-97995238D01*
X171799047Y-98280952D02*
X171941904Y-98090476D01*
X172084761Y-98280952D01*
X168846666Y-60752380D02*
X168513333Y-60276190D01*
X168275238Y-60752380D02*
X168275238Y-59752380D01*
X168656190Y-59752380D01*
X168751428Y-59800000D01*
X168799047Y-59847619D01*
X168846666Y-59942857D01*
X168846666Y-60085714D01*
X168799047Y-60180952D01*
X168751428Y-60228571D01*
X168656190Y-60276190D01*
X168275238Y-60276190D01*
X169275238Y-60228571D02*
X169608571Y-60228571D01*
X169751428Y-60752380D02*
X169275238Y-60752380D01*
X169275238Y-59752380D01*
X169751428Y-59752380D01*
X170513333Y-60228571D02*
X170180000Y-60228571D01*
X170180000Y-60752380D02*
X170180000Y-59752380D01*
X170656190Y-59752380D01*
X171180000Y-59752380D02*
X171180000Y-59990476D01*
X170941904Y-59895238D02*
X171180000Y-59990476D01*
X171418095Y-59895238D01*
X171037142Y-60180952D02*
X171180000Y-59990476D01*
X171322857Y-60180952D01*
X171941904Y-59752380D02*
X171941904Y-59990476D01*
X171703809Y-59895238D02*
X171941904Y-59990476D01*
X172180000Y-59895238D01*
X171799047Y-60180952D02*
X171941904Y-59990476D01*
X172084761Y-60180952D01*
X146581904Y-100362380D02*
X146581904Y-99362380D01*
X146820000Y-99362380D01*
X146962857Y-99410000D01*
X147058095Y-99505238D01*
X147105714Y-99600476D01*
X147153333Y-99790952D01*
X147153333Y-99933809D01*
X147105714Y-100124285D01*
X147058095Y-100219523D01*
X146962857Y-100314761D01*
X146820000Y-100362380D01*
X146581904Y-100362380D01*
X148105714Y-100362380D02*
X147534285Y-100362380D01*
X147820000Y-100362380D02*
X147820000Y-99362380D01*
X147724761Y-99505238D01*
X147629523Y-99600476D01*
X147534285Y-99648095D01*
X95662380Y-73993333D02*
X96376666Y-73993333D01*
X96519523Y-74040952D01*
X96614761Y-74136190D01*
X96662380Y-74279047D01*
X96662380Y-74374285D01*
X96662380Y-72993333D02*
X96662380Y-73564761D01*
X96662380Y-73279047D02*
X95662380Y-73279047D01*
X95805238Y-73374285D01*
X95900476Y-73469523D01*
X95948095Y-73564761D01*
X95662380Y-84153333D02*
X96376666Y-84153333D01*
X96519523Y-84200952D01*
X96614761Y-84296190D01*
X96662380Y-84439047D01*
X96662380Y-84534285D01*
X95757619Y-83724761D02*
X95710000Y-83677142D01*
X95662380Y-83581904D01*
X95662380Y-83343809D01*
X95710000Y-83248571D01*
X95757619Y-83200952D01*
X95852857Y-83153333D01*
X95948095Y-83153333D01*
X96090952Y-83200952D01*
X96662380Y-83772380D01*
X96662380Y-83153333D01*
X147153333Y-96812380D02*
X146820000Y-96336190D01*
X146581904Y-96812380D02*
X146581904Y-95812380D01*
X146962857Y-95812380D01*
X147058095Y-95860000D01*
X147105714Y-95907619D01*
X147153333Y-96002857D01*
X147153333Y-96145714D01*
X147105714Y-96240952D01*
X147058095Y-96288571D01*
X146962857Y-96336190D01*
X146581904Y-96336190D01*
X148105714Y-96812380D02*
X147534285Y-96812380D01*
X147820000Y-96812380D02*
X147820000Y-95812380D01*
X147724761Y-95955238D01*
X147629523Y-96050476D01*
X147534285Y-96098095D01*
X117943333Y-96972380D02*
X117610000Y-96496190D01*
X117371904Y-96972380D02*
X117371904Y-95972380D01*
X117752857Y-95972380D01*
X117848095Y-96020000D01*
X117895714Y-96067619D01*
X117943333Y-96162857D01*
X117943333Y-96305714D01*
X117895714Y-96400952D01*
X117848095Y-96448571D01*
X117752857Y-96496190D01*
X117371904Y-96496190D01*
X118324285Y-96067619D02*
X118371904Y-96020000D01*
X118467142Y-95972380D01*
X118705238Y-95972380D01*
X118800476Y-96020000D01*
X118848095Y-96067619D01*
X118895714Y-96162857D01*
X118895714Y-96258095D01*
X118848095Y-96400952D01*
X118276666Y-96972380D01*
X118895714Y-96972380D01*
X166134761Y-70742380D02*
X165801428Y-70266190D01*
X165563333Y-70742380D02*
X165563333Y-69742380D01*
X165944285Y-69742380D01*
X166039523Y-69790000D01*
X166087142Y-69837619D01*
X166134761Y-69932857D01*
X166134761Y-70075714D01*
X166087142Y-70170952D01*
X166039523Y-70218571D01*
X165944285Y-70266190D01*
X165563333Y-70266190D01*
X166420476Y-69742380D02*
X166753809Y-70742380D01*
X167087142Y-69742380D01*
X167944285Y-70742380D02*
X167372857Y-70742380D01*
X167658571Y-70742380D02*
X167658571Y-69742380D01*
X167563333Y-69885238D01*
X167468095Y-69980476D01*
X167372857Y-70028095D01*
X112966666Y-102004761D02*
X113109523Y-102052380D01*
X113347619Y-102052380D01*
X113442857Y-102004761D01*
X113490476Y-101957142D01*
X113538095Y-101861904D01*
X113538095Y-101766666D01*
X113490476Y-101671428D01*
X113442857Y-101623809D01*
X113347619Y-101576190D01*
X113157142Y-101528571D01*
X113061904Y-101480952D01*
X113014285Y-101433333D01*
X112966666Y-101338095D01*
X112966666Y-101242857D01*
X113014285Y-101147619D01*
X113061904Y-101100000D01*
X113157142Y-101052380D01*
X113395238Y-101052380D01*
X113538095Y-101100000D01*
X113871428Y-101052380D02*
X114109523Y-102052380D01*
X114300000Y-101338095D01*
X114490476Y-102052380D01*
X114728571Y-101052380D01*
X115633333Y-102052380D02*
X115061904Y-102052380D01*
X115347619Y-102052380D02*
X115347619Y-101052380D01*
X115252380Y-101195238D01*
X115157142Y-101290476D01*
X115061904Y-101338095D01*
M02*
