M48
; DRILL file {KiCad (5.1.5-0-10_14)} date Friday, 19 June 2020 at 17:08:08
; FORMAT={-:-/ absolute / inch / decimal}
; #@! TF.CreationDate,2020-06-19T17:08:08+01:00
; #@! TF.GenerationSoftware,Kicad,Pcbnew,(5.1.5-0-10_14)
; #@! TF.FileFunction,Plated,1,2,PTH
FMAT,2
INCH
T1C0.0157
T2C0.0354
T3C0.0394
T4C0.0400
T5C0.0433
T6C0.0469
T7C0.0866
%
G90
G05
T1
X6.635Y-4.0
X6.6541Y-3.9541
X6.6541Y-4.0459
X6.7Y-3.935
X6.7Y-4.065
X6.7459Y-3.9541
X6.7459Y-4.0459
X6.765Y-4.0
X3.785Y-4.0
X3.8041Y-3.9541
X3.8041Y-4.0459
X3.85Y-3.935
X3.85Y-4.065
X3.8959Y-3.9541
X3.8959Y-4.0459
X3.915Y-4.0
X6.635Y-2.5
X6.6541Y-2.4541
X6.6541Y-2.5459
X6.7Y-2.435
X6.7Y-2.565
X6.7459Y-2.4541
X6.7459Y-2.5459
X6.765Y-2.5
X3.785Y-2.5
X3.8041Y-2.4541
X3.8041Y-2.5459
X3.85Y-2.435
X3.85Y-2.565
X3.8959Y-2.4541
X3.8959Y-2.5459
X3.915Y-2.5
T2
X5.75Y-4.05
X5.85Y-4.05
T3
X4.2993Y-2.7993
X4.2993Y-2.8993
X4.2993Y-2.9993
X4.2993Y-3.1993
X4.2993Y-3.2993
X4.2993Y-3.3993
X6.3Y-2.95
X6.3Y-3.0484
X6.3Y-3.1469
T4
X4.3989Y-3.5489
X4.3989Y-3.6489
X4.3993Y-2.5493
X4.3993Y-2.6493
X4.4989Y-3.5489
X4.4989Y-3.6489
X4.4993Y-2.5493
X4.4993Y-2.6493
X4.5Y-3.45
X4.5989Y-3.5489
X4.5989Y-3.6489
X4.5993Y-2.5493
X4.5993Y-2.6493
X4.6Y-3.45
X4.6989Y-3.5489
X4.6989Y-3.6489
X4.6993Y-2.5493
X4.6993Y-2.6493
X4.7Y-3.45
X4.7989Y-3.5489
X4.7989Y-3.6489
X4.7993Y-2.5493
X4.7993Y-2.6493
X4.8989Y-3.5489
X4.8989Y-3.6489
X4.8993Y-2.5493
X4.8993Y-2.6493
X4.9989Y-3.5489
X4.9989Y-3.6489
X4.9993Y-2.5493
X4.9993Y-2.6493
X5.0989Y-3.5489
X5.0989Y-3.6489
X5.0993Y-2.5493
X5.0993Y-2.6493
X5.1989Y-3.5489
X5.1989Y-3.6489
X5.1993Y-2.5493
X5.1993Y-2.6493
X5.2Y-3.45
X5.2989Y-3.5489
X5.2989Y-3.6489
X5.2993Y-2.5493
X5.2993Y-2.6493
X5.3Y-3.45
X5.3989Y-3.5489
X5.3989Y-3.6489
X5.3993Y-2.5493
X5.3993Y-2.6493
X5.4Y-3.45
X5.4989Y-3.5489
X5.4989Y-3.6489
X5.4993Y-2.5493
X5.4993Y-2.6493
X5.5Y-3.45
X5.5989Y-3.5489
X5.5989Y-3.6489
X5.5993Y-2.5493
X5.5993Y-2.6493
X5.6Y-3.45
X5.6989Y-3.5489
X5.6989Y-3.6489
X5.6993Y-2.5493
X5.6993Y-2.6493
X5.7Y-3.45
X5.7989Y-3.5489
X5.7989Y-3.6489
X5.7993Y-2.5493
X5.7993Y-2.6493
X5.8Y-3.45
X5.8989Y-3.5489
X5.8989Y-3.6489
X5.8993Y-2.5493
X5.8993Y-2.6493
X5.9Y-3.45
X5.9989Y-3.5489
X5.9989Y-3.6489
X5.9993Y-2.5493
X5.9993Y-2.6493
X6.0Y-3.45
X6.0989Y-3.5489
X6.0989Y-3.6489
X6.0993Y-2.5493
X6.0993Y-2.6493
X6.1Y-3.45
T5
X4.65Y-3.9
X4.65Y-4.0772
X4.9059Y-3.9
X4.9059Y-4.0772
T6
X3.95Y-3.2
X3.95Y-3.3
X3.95Y-3.4
X3.95Y-2.8
X3.95Y-2.9
X3.95Y-3.0
T7
X6.7Y-4.0
X3.85Y-4.0
X6.7Y-2.5
X3.85Y-2.5
T5
G00X6.5815Y-2.8594
M15
G01X6.6091Y-2.8594
M16
G05
G00X6.5815Y-3.2374
M15
G01X6.6091Y-3.2374
M16
G05
T0
M30
