G04 #@! TF.GenerationSoftware,KiCad,Pcbnew,(5.1.5-0-10_14)*
G04 #@! TF.CreationDate,2020-06-19T17:07:22+01:00*
G04 #@! TF.ProjectId,AIL_Workshop,41494c5f-576f-4726-9b73-686f702e6b69,rev?*
G04 #@! TF.SameCoordinates,Original*
G04 #@! TF.FileFunction,Soldermask,Top*
G04 #@! TF.FilePolarity,Negative*
%FSLAX46Y46*%
G04 Gerber Fmt 4.6, Leading zero omitted, Abs format (unit mm)*
G04 Created by KiCad (PCBNEW (5.1.5-0-10_14)) date 2020-06-19 17:07:22*
%MOMM*%
%LPD*%
G04 APERTURE LIST*
%ADD10C,0.100000*%
G04 APERTURE END LIST*
D10*
G36*
X124916564Y-102549389D02*
G01*
X125107833Y-102628615D01*
X125107835Y-102628616D01*
X125255423Y-102727231D01*
X125279973Y-102743635D01*
X125426365Y-102890027D01*
X125541385Y-103062167D01*
X125620611Y-103253436D01*
X125661000Y-103456484D01*
X125661000Y-103663516D01*
X125620611Y-103866564D01*
X125541385Y-104057833D01*
X125541384Y-104057835D01*
X125426365Y-104229973D01*
X125279973Y-104376365D01*
X125107835Y-104491384D01*
X125107834Y-104491385D01*
X125107833Y-104491385D01*
X124916564Y-104570611D01*
X124713516Y-104611000D01*
X124506484Y-104611000D01*
X124303436Y-104570611D01*
X124112167Y-104491385D01*
X124112166Y-104491385D01*
X124112165Y-104491384D01*
X123940027Y-104376365D01*
X123793635Y-104229973D01*
X123678616Y-104057835D01*
X123678615Y-104057833D01*
X123599389Y-103866564D01*
X123559000Y-103663516D01*
X123559000Y-103456484D01*
X123599389Y-103253436D01*
X123678615Y-103062167D01*
X123793635Y-102890027D01*
X123940027Y-102743635D01*
X123964577Y-102727231D01*
X124112165Y-102628616D01*
X124112167Y-102628615D01*
X124303436Y-102549389D01*
X124506484Y-102509000D01*
X124713516Y-102509000D01*
X124916564Y-102549389D01*
G37*
G36*
X118416564Y-102549389D02*
G01*
X118607833Y-102628615D01*
X118607835Y-102628616D01*
X118755423Y-102727231D01*
X118779973Y-102743635D01*
X118926365Y-102890027D01*
X119041385Y-103062167D01*
X119120611Y-103253436D01*
X119161000Y-103456484D01*
X119161000Y-103663516D01*
X119120611Y-103866564D01*
X119041385Y-104057833D01*
X119041384Y-104057835D01*
X118926365Y-104229973D01*
X118779973Y-104376365D01*
X118607835Y-104491384D01*
X118607834Y-104491385D01*
X118607833Y-104491385D01*
X118416564Y-104570611D01*
X118213516Y-104611000D01*
X118006484Y-104611000D01*
X117803436Y-104570611D01*
X117612167Y-104491385D01*
X117612166Y-104491385D01*
X117612165Y-104491384D01*
X117440027Y-104376365D01*
X117293635Y-104229973D01*
X117178616Y-104057835D01*
X117178615Y-104057833D01*
X117099389Y-103866564D01*
X117059000Y-103663516D01*
X117059000Y-103456484D01*
X117099389Y-103253436D01*
X117178615Y-103062167D01*
X117293635Y-102890027D01*
X117440027Y-102743635D01*
X117464577Y-102727231D01*
X117612165Y-102628616D01*
X117612167Y-102628615D01*
X117803436Y-102549389D01*
X118006484Y-102509000D01*
X118213516Y-102509000D01*
X118416564Y-102549389D01*
G37*
G36*
X170455880Y-99359776D02*
G01*
X170836593Y-99435504D01*
X171246249Y-99605189D01*
X171614929Y-99851534D01*
X171928466Y-100165071D01*
X172174811Y-100533751D01*
X172344496Y-100943407D01*
X172431000Y-101378296D01*
X172431000Y-101821704D01*
X172344496Y-102256593D01*
X172174811Y-102666249D01*
X171928466Y-103034929D01*
X171614929Y-103348466D01*
X171246249Y-103594811D01*
X170836593Y-103764496D01*
X170455880Y-103840224D01*
X170401705Y-103851000D01*
X169958295Y-103851000D01*
X169904120Y-103840224D01*
X169523407Y-103764496D01*
X169113751Y-103594811D01*
X168745071Y-103348466D01*
X168431534Y-103034929D01*
X168185189Y-102666249D01*
X168015504Y-102256593D01*
X167929000Y-101821704D01*
X167929000Y-101378296D01*
X168015504Y-100943407D01*
X168185189Y-100533751D01*
X168431534Y-100165071D01*
X168745071Y-99851534D01*
X169113751Y-99605189D01*
X169523407Y-99435504D01*
X169904120Y-99359776D01*
X169958295Y-99349000D01*
X170401705Y-99349000D01*
X170455880Y-99359776D01*
G37*
G36*
X98065880Y-99359776D02*
G01*
X98446593Y-99435504D01*
X98856249Y-99605189D01*
X99224929Y-99851534D01*
X99538466Y-100165071D01*
X99784811Y-100533751D01*
X99954496Y-100943407D01*
X100041000Y-101378296D01*
X100041000Y-101821704D01*
X99954496Y-102256593D01*
X99784811Y-102666249D01*
X99538466Y-103034929D01*
X99224929Y-103348466D01*
X98856249Y-103594811D01*
X98446593Y-103764496D01*
X98065880Y-103840224D01*
X98011705Y-103851000D01*
X97568295Y-103851000D01*
X97514120Y-103840224D01*
X97133407Y-103764496D01*
X96723751Y-103594811D01*
X96355071Y-103348466D01*
X96041534Y-103034929D01*
X95795189Y-102666249D01*
X95625504Y-102256593D01*
X95539000Y-101821704D01*
X95539000Y-101378296D01*
X95625504Y-100943407D01*
X95795189Y-100533751D01*
X96041534Y-100165071D01*
X96355071Y-99851534D01*
X96723751Y-99605189D01*
X97133407Y-99435504D01*
X97514120Y-99359776D01*
X97568295Y-99349000D01*
X98011705Y-99349000D01*
X98065880Y-99359776D01*
G37*
G36*
X148867395Y-101955546D02*
G01*
X149040466Y-102027234D01*
X149040467Y-102027235D01*
X149196227Y-102131310D01*
X149328690Y-102263773D01*
X149328691Y-102263775D01*
X149432766Y-102419534D01*
X149504454Y-102592605D01*
X149541000Y-102776333D01*
X149541000Y-102963667D01*
X149504454Y-103147395D01*
X149432766Y-103320466D01*
X149432765Y-103320467D01*
X149328690Y-103476227D01*
X149196227Y-103608690D01*
X149155968Y-103635590D01*
X149040466Y-103712766D01*
X148867395Y-103784454D01*
X148683667Y-103821000D01*
X148496333Y-103821000D01*
X148312605Y-103784454D01*
X148139534Y-103712766D01*
X148024032Y-103635590D01*
X147983773Y-103608690D01*
X147851310Y-103476227D01*
X147747235Y-103320467D01*
X147747234Y-103320466D01*
X147675546Y-103147395D01*
X147639000Y-102963667D01*
X147639000Y-102776333D01*
X147675546Y-102592605D01*
X147747234Y-102419534D01*
X147851309Y-102263775D01*
X147851310Y-102263773D01*
X147983773Y-102131310D01*
X148139533Y-102027235D01*
X148139534Y-102027234D01*
X148312605Y-101955546D01*
X148496333Y-101919000D01*
X148683667Y-101919000D01*
X148867395Y-101955546D01*
G37*
G36*
X147001000Y-103821000D02*
G01*
X145099000Y-103821000D01*
X145099000Y-101919000D01*
X147001000Y-101919000D01*
X147001000Y-103821000D01*
G37*
G36*
X124916564Y-98049389D02*
G01*
X125107833Y-98128615D01*
X125107835Y-98128616D01*
X125169158Y-98169591D01*
X125279973Y-98243635D01*
X125426365Y-98390027D01*
X125541385Y-98562167D01*
X125620611Y-98753436D01*
X125661000Y-98956484D01*
X125661000Y-99163516D01*
X125620611Y-99366564D01*
X125545044Y-99549000D01*
X125541384Y-99557835D01*
X125426365Y-99729973D01*
X125279973Y-99876365D01*
X125107835Y-99991384D01*
X125107834Y-99991385D01*
X125107833Y-99991385D01*
X124916564Y-100070611D01*
X124713516Y-100111000D01*
X124506484Y-100111000D01*
X124303436Y-100070611D01*
X124112167Y-99991385D01*
X124112166Y-99991385D01*
X124112165Y-99991384D01*
X123940027Y-99876365D01*
X123793635Y-99729973D01*
X123678616Y-99557835D01*
X123674956Y-99549000D01*
X123599389Y-99366564D01*
X123559000Y-99163516D01*
X123559000Y-98956484D01*
X123599389Y-98753436D01*
X123678615Y-98562167D01*
X123793635Y-98390027D01*
X123940027Y-98243635D01*
X124050842Y-98169591D01*
X124112165Y-98128616D01*
X124112167Y-98128615D01*
X124303436Y-98049389D01*
X124506484Y-98009000D01*
X124713516Y-98009000D01*
X124916564Y-98049389D01*
G37*
G36*
X118416564Y-98049389D02*
G01*
X118607833Y-98128615D01*
X118607835Y-98128616D01*
X118669158Y-98169591D01*
X118779973Y-98243635D01*
X118926365Y-98390027D01*
X119041385Y-98562167D01*
X119120611Y-98753436D01*
X119161000Y-98956484D01*
X119161000Y-99163516D01*
X119120611Y-99366564D01*
X119045044Y-99549000D01*
X119041384Y-99557835D01*
X118926365Y-99729973D01*
X118779973Y-99876365D01*
X118607835Y-99991384D01*
X118607834Y-99991385D01*
X118607833Y-99991385D01*
X118416564Y-100070611D01*
X118213516Y-100111000D01*
X118006484Y-100111000D01*
X117803436Y-100070611D01*
X117612167Y-99991385D01*
X117612166Y-99991385D01*
X117612165Y-99991384D01*
X117440027Y-99876365D01*
X117293635Y-99729973D01*
X117178616Y-99557835D01*
X117174956Y-99549000D01*
X117099389Y-99366564D01*
X117059000Y-99163516D01*
X117059000Y-98956484D01*
X117099389Y-98753436D01*
X117178615Y-98562167D01*
X117293635Y-98390027D01*
X117440027Y-98243635D01*
X117550842Y-98169591D01*
X117612165Y-98128616D01*
X117612167Y-98128615D01*
X117803436Y-98049389D01*
X118006484Y-98009000D01*
X118213516Y-98009000D01*
X118416564Y-98049389D01*
G37*
G36*
X148449591Y-97268085D02*
G01*
X148483569Y-97278393D01*
X148514890Y-97295134D01*
X148542339Y-97317661D01*
X148564866Y-97345110D01*
X148581607Y-97376431D01*
X148591915Y-97410409D01*
X148596000Y-97451890D01*
X148596000Y-98128110D01*
X148591915Y-98169591D01*
X148581607Y-98203569D01*
X148564866Y-98234890D01*
X148542339Y-98262339D01*
X148514890Y-98284866D01*
X148483569Y-98301607D01*
X148449591Y-98311915D01*
X148408110Y-98316000D01*
X147806890Y-98316000D01*
X147765409Y-98311915D01*
X147731431Y-98301607D01*
X147700110Y-98284866D01*
X147672661Y-98262339D01*
X147650134Y-98234890D01*
X147633393Y-98203569D01*
X147623085Y-98169591D01*
X147619000Y-98128110D01*
X147619000Y-97451890D01*
X147623085Y-97410409D01*
X147633393Y-97376431D01*
X147650134Y-97345110D01*
X147672661Y-97317661D01*
X147700110Y-97295134D01*
X147731431Y-97278393D01*
X147765409Y-97268085D01*
X147806890Y-97264000D01*
X148408110Y-97264000D01*
X148449591Y-97268085D01*
G37*
G36*
X146874591Y-97268085D02*
G01*
X146908569Y-97278393D01*
X146939890Y-97295134D01*
X146967339Y-97317661D01*
X146989866Y-97345110D01*
X147006607Y-97376431D01*
X147016915Y-97410409D01*
X147021000Y-97451890D01*
X147021000Y-98128110D01*
X147016915Y-98169591D01*
X147006607Y-98203569D01*
X146989866Y-98234890D01*
X146967339Y-98262339D01*
X146939890Y-98284866D01*
X146908569Y-98301607D01*
X146874591Y-98311915D01*
X146833110Y-98316000D01*
X146231890Y-98316000D01*
X146190409Y-98311915D01*
X146156431Y-98301607D01*
X146125110Y-98284866D01*
X146097661Y-98262339D01*
X146075134Y-98234890D01*
X146058393Y-98203569D01*
X146048085Y-98169591D01*
X146044000Y-98128110D01*
X146044000Y-97451890D01*
X146048085Y-97410409D01*
X146058393Y-97376431D01*
X146075134Y-97345110D01*
X146097661Y-97317661D01*
X146125110Y-97295134D01*
X146156431Y-97278393D01*
X146190409Y-97268085D01*
X146231890Y-97264000D01*
X146833110Y-97264000D01*
X146874591Y-97268085D01*
G37*
G36*
X122262091Y-95613086D02*
G01*
X122296069Y-95623394D01*
X122327390Y-95640135D01*
X122354839Y-95662662D01*
X122377366Y-95690111D01*
X122394107Y-95721432D01*
X122404415Y-95755410D01*
X122408500Y-95796891D01*
X122408500Y-96473111D01*
X122404415Y-96514592D01*
X122394107Y-96548570D01*
X122377366Y-96579891D01*
X122354839Y-96607340D01*
X122327390Y-96629867D01*
X122296069Y-96646608D01*
X122262091Y-96656916D01*
X122220610Y-96661001D01*
X121619390Y-96661001D01*
X121577909Y-96656916D01*
X121543931Y-96646608D01*
X121512610Y-96629867D01*
X121485161Y-96607340D01*
X121462634Y-96579891D01*
X121445893Y-96548570D01*
X121435585Y-96514592D01*
X121431500Y-96473111D01*
X121431500Y-95796891D01*
X121435585Y-95755410D01*
X121445893Y-95721432D01*
X121462634Y-95690111D01*
X121485161Y-95662662D01*
X121512610Y-95640135D01*
X121543931Y-95623394D01*
X121577909Y-95613086D01*
X121619390Y-95609001D01*
X122220610Y-95609001D01*
X122262091Y-95613086D01*
G37*
G36*
X120687091Y-95613086D02*
G01*
X120721069Y-95623394D01*
X120752390Y-95640135D01*
X120779839Y-95662662D01*
X120802366Y-95690111D01*
X120819107Y-95721432D01*
X120829415Y-95755410D01*
X120833500Y-95796891D01*
X120833500Y-96473111D01*
X120829415Y-96514592D01*
X120819107Y-96548570D01*
X120802366Y-96579891D01*
X120779839Y-96607340D01*
X120752390Y-96629867D01*
X120721069Y-96646608D01*
X120687091Y-96656916D01*
X120645610Y-96661001D01*
X120044390Y-96661001D01*
X120002909Y-96656916D01*
X119968931Y-96646608D01*
X119937610Y-96629867D01*
X119910161Y-96607340D01*
X119887634Y-96579891D01*
X119870893Y-96548570D01*
X119860585Y-96514592D01*
X119856500Y-96473111D01*
X119856500Y-95796891D01*
X119860585Y-95755410D01*
X119870893Y-95721432D01*
X119887634Y-95690111D01*
X119910161Y-95662662D01*
X119937610Y-95640135D01*
X119968931Y-95623394D01*
X120002909Y-95613086D01*
X120044390Y-95609001D01*
X120645610Y-95609001D01*
X120687091Y-95613086D01*
G37*
G36*
X137382725Y-91850410D02*
G01*
X137539890Y-91915510D01*
X137681335Y-92010021D01*
X137801624Y-92130310D01*
X137896135Y-92271755D01*
X137961235Y-92428920D01*
X137994422Y-92595766D01*
X137994422Y-92765880D01*
X137961235Y-92932726D01*
X137896135Y-93089891D01*
X137801624Y-93231336D01*
X137681335Y-93351625D01*
X137539890Y-93446136D01*
X137382725Y-93511236D01*
X137215879Y-93544423D01*
X137045765Y-93544423D01*
X136878919Y-93511236D01*
X136721754Y-93446136D01*
X136580309Y-93351625D01*
X136460020Y-93231336D01*
X136365509Y-93089891D01*
X136300409Y-92932726D01*
X136267222Y-92765880D01*
X136267222Y-92595766D01*
X136300409Y-92428920D01*
X136365509Y-92271755D01*
X136460020Y-92130310D01*
X136580309Y-92010021D01*
X136721754Y-91915510D01*
X136878919Y-91850410D01*
X137045765Y-91817223D01*
X137215879Y-91817223D01*
X137382725Y-91850410D01*
G37*
G36*
X111982725Y-91850410D02*
G01*
X112139890Y-91915510D01*
X112281335Y-92010021D01*
X112401624Y-92130310D01*
X112496135Y-92271755D01*
X112561235Y-92428920D01*
X112594422Y-92595766D01*
X112594422Y-92765880D01*
X112561235Y-92932726D01*
X112496135Y-93089891D01*
X112401624Y-93231336D01*
X112281335Y-93351625D01*
X112139890Y-93446136D01*
X111982725Y-93511236D01*
X111815879Y-93544423D01*
X111645765Y-93544423D01*
X111478919Y-93511236D01*
X111321754Y-93446136D01*
X111180309Y-93351625D01*
X111060020Y-93231336D01*
X110965509Y-93089891D01*
X110900409Y-92932726D01*
X110867222Y-92765880D01*
X110867222Y-92595766D01*
X110900409Y-92428920D01*
X110965509Y-92271755D01*
X111060020Y-92130310D01*
X111180309Y-92010021D01*
X111321754Y-91915510D01*
X111478919Y-91850410D01*
X111645765Y-91817223D01*
X111815879Y-91817223D01*
X111982725Y-91850410D01*
G37*
G36*
X155162725Y-91850410D02*
G01*
X155319890Y-91915510D01*
X155461335Y-92010021D01*
X155581624Y-92130310D01*
X155676135Y-92271755D01*
X155741235Y-92428920D01*
X155774422Y-92595766D01*
X155774422Y-92765880D01*
X155741235Y-92932726D01*
X155676135Y-93089891D01*
X155581624Y-93231336D01*
X155461335Y-93351625D01*
X155319890Y-93446136D01*
X155162725Y-93511236D01*
X154995879Y-93544423D01*
X154825765Y-93544423D01*
X154658919Y-93511236D01*
X154501754Y-93446136D01*
X154360309Y-93351625D01*
X154240020Y-93231336D01*
X154145509Y-93089891D01*
X154080409Y-92932726D01*
X154047222Y-92765880D01*
X154047222Y-92595766D01*
X154080409Y-92428920D01*
X154145509Y-92271755D01*
X154240020Y-92130310D01*
X154360309Y-92010021D01*
X154501754Y-91915510D01*
X154658919Y-91850410D01*
X154825765Y-91817223D01*
X154995879Y-91817223D01*
X155162725Y-91850410D01*
G37*
G36*
X152622725Y-91850410D02*
G01*
X152779890Y-91915510D01*
X152921335Y-92010021D01*
X153041624Y-92130310D01*
X153136135Y-92271755D01*
X153201235Y-92428920D01*
X153234422Y-92595766D01*
X153234422Y-92765880D01*
X153201235Y-92932726D01*
X153136135Y-93089891D01*
X153041624Y-93231336D01*
X152921335Y-93351625D01*
X152779890Y-93446136D01*
X152622725Y-93511236D01*
X152455879Y-93544423D01*
X152285765Y-93544423D01*
X152118919Y-93511236D01*
X151961754Y-93446136D01*
X151820309Y-93351625D01*
X151700020Y-93231336D01*
X151605509Y-93089891D01*
X151540409Y-92932726D01*
X151507222Y-92765880D01*
X151507222Y-92595766D01*
X151540409Y-92428920D01*
X151605509Y-92271755D01*
X151700020Y-92130310D01*
X151820309Y-92010021D01*
X151961754Y-91915510D01*
X152118919Y-91850410D01*
X152285765Y-91817223D01*
X152455879Y-91817223D01*
X152622725Y-91850410D01*
G37*
G36*
X150082725Y-91850410D02*
G01*
X150239890Y-91915510D01*
X150381335Y-92010021D01*
X150501624Y-92130310D01*
X150596135Y-92271755D01*
X150661235Y-92428920D01*
X150694422Y-92595766D01*
X150694422Y-92765880D01*
X150661235Y-92932726D01*
X150596135Y-93089891D01*
X150501624Y-93231336D01*
X150381335Y-93351625D01*
X150239890Y-93446136D01*
X150082725Y-93511236D01*
X149915879Y-93544423D01*
X149745765Y-93544423D01*
X149578919Y-93511236D01*
X149421754Y-93446136D01*
X149280309Y-93351625D01*
X149160020Y-93231336D01*
X149065509Y-93089891D01*
X149000409Y-92932726D01*
X148967222Y-92765880D01*
X148967222Y-92595766D01*
X149000409Y-92428920D01*
X149065509Y-92271755D01*
X149160020Y-92130310D01*
X149280309Y-92010021D01*
X149421754Y-91915510D01*
X149578919Y-91850410D01*
X149745765Y-91817223D01*
X149915879Y-91817223D01*
X150082725Y-91850410D01*
G37*
G36*
X147542725Y-91850410D02*
G01*
X147699890Y-91915510D01*
X147841335Y-92010021D01*
X147961624Y-92130310D01*
X148056135Y-92271755D01*
X148121235Y-92428920D01*
X148154422Y-92595766D01*
X148154422Y-92765880D01*
X148121235Y-92932726D01*
X148056135Y-93089891D01*
X147961624Y-93231336D01*
X147841335Y-93351625D01*
X147699890Y-93446136D01*
X147542725Y-93511236D01*
X147375879Y-93544423D01*
X147205765Y-93544423D01*
X147038919Y-93511236D01*
X146881754Y-93446136D01*
X146740309Y-93351625D01*
X146620020Y-93231336D01*
X146525509Y-93089891D01*
X146460409Y-92932726D01*
X146427222Y-92765880D01*
X146427222Y-92595766D01*
X146460409Y-92428920D01*
X146525509Y-92271755D01*
X146620020Y-92130310D01*
X146740309Y-92010021D01*
X146881754Y-91915510D01*
X147038919Y-91850410D01*
X147205765Y-91817223D01*
X147375879Y-91817223D01*
X147542725Y-91850410D01*
G37*
G36*
X145002725Y-91850410D02*
G01*
X145159890Y-91915510D01*
X145301335Y-92010021D01*
X145421624Y-92130310D01*
X145516135Y-92271755D01*
X145581235Y-92428920D01*
X145614422Y-92595766D01*
X145614422Y-92765880D01*
X145581235Y-92932726D01*
X145516135Y-93089891D01*
X145421624Y-93231336D01*
X145301335Y-93351625D01*
X145159890Y-93446136D01*
X145002725Y-93511236D01*
X144835879Y-93544423D01*
X144665765Y-93544423D01*
X144498919Y-93511236D01*
X144341754Y-93446136D01*
X144200309Y-93351625D01*
X144080020Y-93231336D01*
X143985509Y-93089891D01*
X143920409Y-92932726D01*
X143887222Y-92765880D01*
X143887222Y-92595766D01*
X143920409Y-92428920D01*
X143985509Y-92271755D01*
X144080020Y-92130310D01*
X144200309Y-92010021D01*
X144341754Y-91915510D01*
X144498919Y-91850410D01*
X144665765Y-91817223D01*
X144835879Y-91817223D01*
X145002725Y-91850410D01*
G37*
G36*
X142462725Y-91850410D02*
G01*
X142619890Y-91915510D01*
X142761335Y-92010021D01*
X142881624Y-92130310D01*
X142976135Y-92271755D01*
X143041235Y-92428920D01*
X143074422Y-92595766D01*
X143074422Y-92765880D01*
X143041235Y-92932726D01*
X142976135Y-93089891D01*
X142881624Y-93231336D01*
X142761335Y-93351625D01*
X142619890Y-93446136D01*
X142462725Y-93511236D01*
X142295879Y-93544423D01*
X142125765Y-93544423D01*
X141958919Y-93511236D01*
X141801754Y-93446136D01*
X141660309Y-93351625D01*
X141540020Y-93231336D01*
X141445509Y-93089891D01*
X141380409Y-92932726D01*
X141347222Y-92765880D01*
X141347222Y-92595766D01*
X141380409Y-92428920D01*
X141445509Y-92271755D01*
X141540020Y-92130310D01*
X141660309Y-92010021D01*
X141801754Y-91915510D01*
X141958919Y-91850410D01*
X142125765Y-91817223D01*
X142295879Y-91817223D01*
X142462725Y-91850410D01*
G37*
G36*
X139922725Y-91850410D02*
G01*
X140079890Y-91915510D01*
X140221335Y-92010021D01*
X140341624Y-92130310D01*
X140436135Y-92271755D01*
X140501235Y-92428920D01*
X140534422Y-92595766D01*
X140534422Y-92765880D01*
X140501235Y-92932726D01*
X140436135Y-93089891D01*
X140341624Y-93231336D01*
X140221335Y-93351625D01*
X140079890Y-93446136D01*
X139922725Y-93511236D01*
X139755879Y-93544423D01*
X139585765Y-93544423D01*
X139418919Y-93511236D01*
X139261754Y-93446136D01*
X139120309Y-93351625D01*
X139000020Y-93231336D01*
X138905509Y-93089891D01*
X138840409Y-92932726D01*
X138807222Y-92765880D01*
X138807222Y-92595766D01*
X138840409Y-92428920D01*
X138905509Y-92271755D01*
X139000020Y-92130310D01*
X139120309Y-92010021D01*
X139261754Y-91915510D01*
X139418919Y-91850410D01*
X139585765Y-91817223D01*
X139755879Y-91817223D01*
X139922725Y-91850410D01*
G37*
G36*
X134842725Y-91850410D02*
G01*
X134999890Y-91915510D01*
X135141335Y-92010021D01*
X135261624Y-92130310D01*
X135356135Y-92271755D01*
X135421235Y-92428920D01*
X135454422Y-92595766D01*
X135454422Y-92765880D01*
X135421235Y-92932726D01*
X135356135Y-93089891D01*
X135261624Y-93231336D01*
X135141335Y-93351625D01*
X134999890Y-93446136D01*
X134842725Y-93511236D01*
X134675879Y-93544423D01*
X134505765Y-93544423D01*
X134338919Y-93511236D01*
X134181754Y-93446136D01*
X134040309Y-93351625D01*
X133920020Y-93231336D01*
X133825509Y-93089891D01*
X133760409Y-92932726D01*
X133727222Y-92765880D01*
X133727222Y-92595766D01*
X133760409Y-92428920D01*
X133825509Y-92271755D01*
X133920020Y-92130310D01*
X134040309Y-92010021D01*
X134181754Y-91915510D01*
X134338919Y-91850410D01*
X134505765Y-91817223D01*
X134675879Y-91817223D01*
X134842725Y-91850410D01*
G37*
G36*
X132302725Y-91850410D02*
G01*
X132459890Y-91915510D01*
X132601335Y-92010021D01*
X132721624Y-92130310D01*
X132816135Y-92271755D01*
X132881235Y-92428920D01*
X132914422Y-92595766D01*
X132914422Y-92765880D01*
X132881235Y-92932726D01*
X132816135Y-93089891D01*
X132721624Y-93231336D01*
X132601335Y-93351625D01*
X132459890Y-93446136D01*
X132302725Y-93511236D01*
X132135879Y-93544423D01*
X131965765Y-93544423D01*
X131798919Y-93511236D01*
X131641754Y-93446136D01*
X131500309Y-93351625D01*
X131380020Y-93231336D01*
X131285509Y-93089891D01*
X131220409Y-92932726D01*
X131187222Y-92765880D01*
X131187222Y-92595766D01*
X131220409Y-92428920D01*
X131285509Y-92271755D01*
X131380020Y-92130310D01*
X131500309Y-92010021D01*
X131641754Y-91915510D01*
X131798919Y-91850410D01*
X131965765Y-91817223D01*
X132135879Y-91817223D01*
X132302725Y-91850410D01*
G37*
G36*
X129762725Y-91850410D02*
G01*
X129919890Y-91915510D01*
X130061335Y-92010021D01*
X130181624Y-92130310D01*
X130276135Y-92271755D01*
X130341235Y-92428920D01*
X130374422Y-92595766D01*
X130374422Y-92765880D01*
X130341235Y-92932726D01*
X130276135Y-93089891D01*
X130181624Y-93231336D01*
X130061335Y-93351625D01*
X129919890Y-93446136D01*
X129762725Y-93511236D01*
X129595879Y-93544423D01*
X129425765Y-93544423D01*
X129258919Y-93511236D01*
X129101754Y-93446136D01*
X128960309Y-93351625D01*
X128840020Y-93231336D01*
X128745509Y-93089891D01*
X128680409Y-92932726D01*
X128647222Y-92765880D01*
X128647222Y-92595766D01*
X128680409Y-92428920D01*
X128745509Y-92271755D01*
X128840020Y-92130310D01*
X128960309Y-92010021D01*
X129101754Y-91915510D01*
X129258919Y-91850410D01*
X129425765Y-91817223D01*
X129595879Y-91817223D01*
X129762725Y-91850410D01*
G37*
G36*
X127222725Y-91850410D02*
G01*
X127379890Y-91915510D01*
X127521335Y-92010021D01*
X127641624Y-92130310D01*
X127736135Y-92271755D01*
X127801235Y-92428920D01*
X127834422Y-92595766D01*
X127834422Y-92765880D01*
X127801235Y-92932726D01*
X127736135Y-93089891D01*
X127641624Y-93231336D01*
X127521335Y-93351625D01*
X127379890Y-93446136D01*
X127222725Y-93511236D01*
X127055879Y-93544423D01*
X126885765Y-93544423D01*
X126718919Y-93511236D01*
X126561754Y-93446136D01*
X126420309Y-93351625D01*
X126300020Y-93231336D01*
X126205509Y-93089891D01*
X126140409Y-92932726D01*
X126107222Y-92765880D01*
X126107222Y-92595766D01*
X126140409Y-92428920D01*
X126205509Y-92271755D01*
X126300020Y-92130310D01*
X126420309Y-92010021D01*
X126561754Y-91915510D01*
X126718919Y-91850410D01*
X126885765Y-91817223D01*
X127055879Y-91817223D01*
X127222725Y-91850410D01*
G37*
G36*
X124682725Y-91850410D02*
G01*
X124839890Y-91915510D01*
X124981335Y-92010021D01*
X125101624Y-92130310D01*
X125196135Y-92271755D01*
X125261235Y-92428920D01*
X125294422Y-92595766D01*
X125294422Y-92765880D01*
X125261235Y-92932726D01*
X125196135Y-93089891D01*
X125101624Y-93231336D01*
X124981335Y-93351625D01*
X124839890Y-93446136D01*
X124682725Y-93511236D01*
X124515879Y-93544423D01*
X124345765Y-93544423D01*
X124178919Y-93511236D01*
X124021754Y-93446136D01*
X123880309Y-93351625D01*
X123760020Y-93231336D01*
X123665509Y-93089891D01*
X123600409Y-92932726D01*
X123567222Y-92765880D01*
X123567222Y-92595766D01*
X123600409Y-92428920D01*
X123665509Y-92271755D01*
X123760020Y-92130310D01*
X123880309Y-92010021D01*
X124021754Y-91915510D01*
X124178919Y-91850410D01*
X124345765Y-91817223D01*
X124515879Y-91817223D01*
X124682725Y-91850410D01*
G37*
G36*
X122142725Y-91850410D02*
G01*
X122299890Y-91915510D01*
X122441335Y-92010021D01*
X122561624Y-92130310D01*
X122656135Y-92271755D01*
X122721235Y-92428920D01*
X122754422Y-92595766D01*
X122754422Y-92765880D01*
X122721235Y-92932726D01*
X122656135Y-93089891D01*
X122561624Y-93231336D01*
X122441335Y-93351625D01*
X122299890Y-93446136D01*
X122142725Y-93511236D01*
X121975879Y-93544423D01*
X121805765Y-93544423D01*
X121638919Y-93511236D01*
X121481754Y-93446136D01*
X121340309Y-93351625D01*
X121220020Y-93231336D01*
X121125509Y-93089891D01*
X121060409Y-92932726D01*
X121027222Y-92765880D01*
X121027222Y-92595766D01*
X121060409Y-92428920D01*
X121125509Y-92271755D01*
X121220020Y-92130310D01*
X121340309Y-92010021D01*
X121481754Y-91915510D01*
X121638919Y-91850410D01*
X121805765Y-91817223D01*
X121975879Y-91817223D01*
X122142725Y-91850410D01*
G37*
G36*
X119602725Y-91850410D02*
G01*
X119759890Y-91915510D01*
X119901335Y-92010021D01*
X120021624Y-92130310D01*
X120116135Y-92271755D01*
X120181235Y-92428920D01*
X120214422Y-92595766D01*
X120214422Y-92765880D01*
X120181235Y-92932726D01*
X120116135Y-93089891D01*
X120021624Y-93231336D01*
X119901335Y-93351625D01*
X119759890Y-93446136D01*
X119602725Y-93511236D01*
X119435879Y-93544423D01*
X119265765Y-93544423D01*
X119098919Y-93511236D01*
X118941754Y-93446136D01*
X118800309Y-93351625D01*
X118680020Y-93231336D01*
X118585509Y-93089891D01*
X118520409Y-92932726D01*
X118487222Y-92765880D01*
X118487222Y-92595766D01*
X118520409Y-92428920D01*
X118585509Y-92271755D01*
X118680020Y-92130310D01*
X118800309Y-92010021D01*
X118941754Y-91915510D01*
X119098919Y-91850410D01*
X119265765Y-91817223D01*
X119435879Y-91817223D01*
X119602725Y-91850410D01*
G37*
G36*
X117062725Y-91850410D02*
G01*
X117219890Y-91915510D01*
X117361335Y-92010021D01*
X117481624Y-92130310D01*
X117576135Y-92271755D01*
X117641235Y-92428920D01*
X117674422Y-92595766D01*
X117674422Y-92765880D01*
X117641235Y-92932726D01*
X117576135Y-93089891D01*
X117481624Y-93231336D01*
X117361335Y-93351625D01*
X117219890Y-93446136D01*
X117062725Y-93511236D01*
X116895879Y-93544423D01*
X116725765Y-93544423D01*
X116558919Y-93511236D01*
X116401754Y-93446136D01*
X116260309Y-93351625D01*
X116140020Y-93231336D01*
X116045509Y-93089891D01*
X115980409Y-92932726D01*
X115947222Y-92765880D01*
X115947222Y-92595766D01*
X115980409Y-92428920D01*
X116045509Y-92271755D01*
X116140020Y-92130310D01*
X116260309Y-92010021D01*
X116401754Y-91915510D01*
X116558919Y-91850410D01*
X116725765Y-91817223D01*
X116895879Y-91817223D01*
X117062725Y-91850410D01*
G37*
G36*
X114522725Y-91850410D02*
G01*
X114679890Y-91915510D01*
X114821335Y-92010021D01*
X114941624Y-92130310D01*
X115036135Y-92271755D01*
X115101235Y-92428920D01*
X115134422Y-92595766D01*
X115134422Y-92765880D01*
X115101235Y-92932726D01*
X115036135Y-93089891D01*
X114941624Y-93231336D01*
X114821335Y-93351625D01*
X114679890Y-93446136D01*
X114522725Y-93511236D01*
X114355879Y-93544423D01*
X114185765Y-93544423D01*
X114018919Y-93511236D01*
X113861754Y-93446136D01*
X113720309Y-93351625D01*
X113600020Y-93231336D01*
X113505509Y-93089891D01*
X113440409Y-92932726D01*
X113407222Y-92765880D01*
X113407222Y-92595766D01*
X113440409Y-92428920D01*
X113505509Y-92271755D01*
X113600020Y-92130310D01*
X113720309Y-92010021D01*
X113861754Y-91915510D01*
X114018919Y-91850410D01*
X114185765Y-91817223D01*
X114355879Y-91817223D01*
X114522725Y-91850410D01*
G37*
G36*
X127222725Y-89310410D02*
G01*
X127379890Y-89375510D01*
X127521335Y-89470021D01*
X127641624Y-89590310D01*
X127736135Y-89731755D01*
X127801235Y-89888920D01*
X127834422Y-90055766D01*
X127834422Y-90225880D01*
X127801235Y-90392726D01*
X127736135Y-90549891D01*
X127641624Y-90691336D01*
X127521335Y-90811625D01*
X127379890Y-90906136D01*
X127222725Y-90971236D01*
X127055879Y-91004423D01*
X126885765Y-91004423D01*
X126718919Y-90971236D01*
X126561754Y-90906136D01*
X126420309Y-90811625D01*
X126300020Y-90691336D01*
X126205509Y-90549891D01*
X126140409Y-90392726D01*
X126107222Y-90225880D01*
X126107222Y-90055766D01*
X126140409Y-89888920D01*
X126205509Y-89731755D01*
X126300020Y-89590310D01*
X126420309Y-89470021D01*
X126561754Y-89375510D01*
X126718919Y-89310410D01*
X126885765Y-89277223D01*
X127055879Y-89277223D01*
X127222725Y-89310410D01*
G37*
G36*
X155162725Y-89310410D02*
G01*
X155319890Y-89375510D01*
X155461335Y-89470021D01*
X155581624Y-89590310D01*
X155676135Y-89731755D01*
X155741235Y-89888920D01*
X155774422Y-90055766D01*
X155774422Y-90225880D01*
X155741235Y-90392726D01*
X155676135Y-90549891D01*
X155581624Y-90691336D01*
X155461335Y-90811625D01*
X155319890Y-90906136D01*
X155162725Y-90971236D01*
X154995879Y-91004423D01*
X154825765Y-91004423D01*
X154658919Y-90971236D01*
X154501754Y-90906136D01*
X154360309Y-90811625D01*
X154240020Y-90691336D01*
X154145509Y-90549891D01*
X154080409Y-90392726D01*
X154047222Y-90225880D01*
X154047222Y-90055766D01*
X154080409Y-89888920D01*
X154145509Y-89731755D01*
X154240020Y-89590310D01*
X154360309Y-89470021D01*
X154501754Y-89375510D01*
X154658919Y-89310410D01*
X154825765Y-89277223D01*
X154995879Y-89277223D01*
X155162725Y-89310410D01*
G37*
G36*
X124682725Y-89310410D02*
G01*
X124839890Y-89375510D01*
X124981335Y-89470021D01*
X125101624Y-89590310D01*
X125196135Y-89731755D01*
X125261235Y-89888920D01*
X125294422Y-90055766D01*
X125294422Y-90225880D01*
X125261235Y-90392726D01*
X125196135Y-90549891D01*
X125101624Y-90691336D01*
X124981335Y-90811625D01*
X124839890Y-90906136D01*
X124682725Y-90971236D01*
X124515879Y-91004423D01*
X124345765Y-91004423D01*
X124178919Y-90971236D01*
X124021754Y-90906136D01*
X123880309Y-90811625D01*
X123760020Y-90691336D01*
X123665509Y-90549891D01*
X123600409Y-90392726D01*
X123567222Y-90225880D01*
X123567222Y-90055766D01*
X123600409Y-89888920D01*
X123665509Y-89731755D01*
X123760020Y-89590310D01*
X123880309Y-89470021D01*
X124021754Y-89375510D01*
X124178919Y-89310410D01*
X124345765Y-89277223D01*
X124515879Y-89277223D01*
X124682725Y-89310410D01*
G37*
G36*
X152622725Y-89310410D02*
G01*
X152779890Y-89375510D01*
X152921335Y-89470021D01*
X153041624Y-89590310D01*
X153136135Y-89731755D01*
X153201235Y-89888920D01*
X153234422Y-90055766D01*
X153234422Y-90225880D01*
X153201235Y-90392726D01*
X153136135Y-90549891D01*
X153041624Y-90691336D01*
X152921335Y-90811625D01*
X152779890Y-90906136D01*
X152622725Y-90971236D01*
X152455879Y-91004423D01*
X152285765Y-91004423D01*
X152118919Y-90971236D01*
X151961754Y-90906136D01*
X151820309Y-90811625D01*
X151700020Y-90691336D01*
X151605509Y-90549891D01*
X151540409Y-90392726D01*
X151507222Y-90225880D01*
X151507222Y-90055766D01*
X151540409Y-89888920D01*
X151605509Y-89731755D01*
X151700020Y-89590310D01*
X151820309Y-89470021D01*
X151961754Y-89375510D01*
X152118919Y-89310410D01*
X152285765Y-89277223D01*
X152455879Y-89277223D01*
X152622725Y-89310410D01*
G37*
G36*
X122142725Y-89310410D02*
G01*
X122299890Y-89375510D01*
X122441335Y-89470021D01*
X122561624Y-89590310D01*
X122656135Y-89731755D01*
X122721235Y-89888920D01*
X122754422Y-90055766D01*
X122754422Y-90225880D01*
X122721235Y-90392726D01*
X122656135Y-90549891D01*
X122561624Y-90691336D01*
X122441335Y-90811625D01*
X122299890Y-90906136D01*
X122142725Y-90971236D01*
X121975879Y-91004423D01*
X121805765Y-91004423D01*
X121638919Y-90971236D01*
X121481754Y-90906136D01*
X121340309Y-90811625D01*
X121220020Y-90691336D01*
X121125509Y-90549891D01*
X121060409Y-90392726D01*
X121027222Y-90225880D01*
X121027222Y-90055766D01*
X121060409Y-89888920D01*
X121125509Y-89731755D01*
X121220020Y-89590310D01*
X121340309Y-89470021D01*
X121481754Y-89375510D01*
X121638919Y-89310410D01*
X121805765Y-89277223D01*
X121975879Y-89277223D01*
X122142725Y-89310410D01*
G37*
G36*
X150082725Y-89310410D02*
G01*
X150239890Y-89375510D01*
X150381335Y-89470021D01*
X150501624Y-89590310D01*
X150596135Y-89731755D01*
X150661235Y-89888920D01*
X150694422Y-90055766D01*
X150694422Y-90225880D01*
X150661235Y-90392726D01*
X150596135Y-90549891D01*
X150501624Y-90691336D01*
X150381335Y-90811625D01*
X150239890Y-90906136D01*
X150082725Y-90971236D01*
X149915879Y-91004423D01*
X149745765Y-91004423D01*
X149578919Y-90971236D01*
X149421754Y-90906136D01*
X149280309Y-90811625D01*
X149160020Y-90691336D01*
X149065509Y-90549891D01*
X149000409Y-90392726D01*
X148967222Y-90225880D01*
X148967222Y-90055766D01*
X149000409Y-89888920D01*
X149065509Y-89731755D01*
X149160020Y-89590310D01*
X149280309Y-89470021D01*
X149421754Y-89375510D01*
X149578919Y-89310410D01*
X149745765Y-89277223D01*
X149915879Y-89277223D01*
X150082725Y-89310410D01*
G37*
G36*
X119602725Y-89310410D02*
G01*
X119759890Y-89375510D01*
X119901335Y-89470021D01*
X120021624Y-89590310D01*
X120116135Y-89731755D01*
X120181235Y-89888920D01*
X120214422Y-90055766D01*
X120214422Y-90225880D01*
X120181235Y-90392726D01*
X120116135Y-90549891D01*
X120021624Y-90691336D01*
X119901335Y-90811625D01*
X119759890Y-90906136D01*
X119602725Y-90971236D01*
X119435879Y-91004423D01*
X119265765Y-91004423D01*
X119098919Y-90971236D01*
X118941754Y-90906136D01*
X118800309Y-90811625D01*
X118680020Y-90691336D01*
X118585509Y-90549891D01*
X118520409Y-90392726D01*
X118487222Y-90225880D01*
X118487222Y-90055766D01*
X118520409Y-89888920D01*
X118585509Y-89731755D01*
X118680020Y-89590310D01*
X118800309Y-89470021D01*
X118941754Y-89375510D01*
X119098919Y-89310410D01*
X119265765Y-89277223D01*
X119435879Y-89277223D01*
X119602725Y-89310410D01*
G37*
G36*
X147542725Y-89310410D02*
G01*
X147699890Y-89375510D01*
X147841335Y-89470021D01*
X147961624Y-89590310D01*
X148056135Y-89731755D01*
X148121235Y-89888920D01*
X148154422Y-90055766D01*
X148154422Y-90225880D01*
X148121235Y-90392726D01*
X148056135Y-90549891D01*
X147961624Y-90691336D01*
X147841335Y-90811625D01*
X147699890Y-90906136D01*
X147542725Y-90971236D01*
X147375879Y-91004423D01*
X147205765Y-91004423D01*
X147038919Y-90971236D01*
X146881754Y-90906136D01*
X146740309Y-90811625D01*
X146620020Y-90691336D01*
X146525509Y-90549891D01*
X146460409Y-90392726D01*
X146427222Y-90225880D01*
X146427222Y-90055766D01*
X146460409Y-89888920D01*
X146525509Y-89731755D01*
X146620020Y-89590310D01*
X146740309Y-89470021D01*
X146881754Y-89375510D01*
X147038919Y-89310410D01*
X147205765Y-89277223D01*
X147375879Y-89277223D01*
X147542725Y-89310410D01*
G37*
G36*
X117062725Y-89310410D02*
G01*
X117219890Y-89375510D01*
X117361335Y-89470021D01*
X117481624Y-89590310D01*
X117576135Y-89731755D01*
X117641235Y-89888920D01*
X117674422Y-90055766D01*
X117674422Y-90225880D01*
X117641235Y-90392726D01*
X117576135Y-90549891D01*
X117481624Y-90691336D01*
X117361335Y-90811625D01*
X117219890Y-90906136D01*
X117062725Y-90971236D01*
X116895879Y-91004423D01*
X116725765Y-91004423D01*
X116558919Y-90971236D01*
X116401754Y-90906136D01*
X116260309Y-90811625D01*
X116140020Y-90691336D01*
X116045509Y-90549891D01*
X115980409Y-90392726D01*
X115947222Y-90225880D01*
X115947222Y-90055766D01*
X115980409Y-89888920D01*
X116045509Y-89731755D01*
X116140020Y-89590310D01*
X116260309Y-89470021D01*
X116401754Y-89375510D01*
X116558919Y-89310410D01*
X116725765Y-89277223D01*
X116895879Y-89277223D01*
X117062725Y-89310410D01*
G37*
G36*
X145002725Y-89310410D02*
G01*
X145159890Y-89375510D01*
X145301335Y-89470021D01*
X145421624Y-89590310D01*
X145516135Y-89731755D01*
X145581235Y-89888920D01*
X145614422Y-90055766D01*
X145614422Y-90225880D01*
X145581235Y-90392726D01*
X145516135Y-90549891D01*
X145421624Y-90691336D01*
X145301335Y-90811625D01*
X145159890Y-90906136D01*
X145002725Y-90971236D01*
X144835879Y-91004423D01*
X144665765Y-91004423D01*
X144498919Y-90971236D01*
X144341754Y-90906136D01*
X144200309Y-90811625D01*
X144080020Y-90691336D01*
X143985509Y-90549891D01*
X143920409Y-90392726D01*
X143887222Y-90225880D01*
X143887222Y-90055766D01*
X143920409Y-89888920D01*
X143985509Y-89731755D01*
X144080020Y-89590310D01*
X144200309Y-89470021D01*
X144341754Y-89375510D01*
X144498919Y-89310410D01*
X144665765Y-89277223D01*
X144835879Y-89277223D01*
X145002725Y-89310410D01*
G37*
G36*
X114522725Y-89310410D02*
G01*
X114679890Y-89375510D01*
X114821335Y-89470021D01*
X114941624Y-89590310D01*
X115036135Y-89731755D01*
X115101235Y-89888920D01*
X115134422Y-90055766D01*
X115134422Y-90225880D01*
X115101235Y-90392726D01*
X115036135Y-90549891D01*
X114941624Y-90691336D01*
X114821335Y-90811625D01*
X114679890Y-90906136D01*
X114522725Y-90971236D01*
X114355879Y-91004423D01*
X114185765Y-91004423D01*
X114018919Y-90971236D01*
X113861754Y-90906136D01*
X113720309Y-90811625D01*
X113600020Y-90691336D01*
X113505509Y-90549891D01*
X113440409Y-90392726D01*
X113407222Y-90225880D01*
X113407222Y-90055766D01*
X113440409Y-89888920D01*
X113505509Y-89731755D01*
X113600020Y-89590310D01*
X113720309Y-89470021D01*
X113861754Y-89375510D01*
X114018919Y-89310410D01*
X114185765Y-89277223D01*
X114355879Y-89277223D01*
X114522725Y-89310410D01*
G37*
G36*
X142462725Y-89310410D02*
G01*
X142619890Y-89375510D01*
X142761335Y-89470021D01*
X142881624Y-89590310D01*
X142976135Y-89731755D01*
X143041235Y-89888920D01*
X143074422Y-90055766D01*
X143074422Y-90225880D01*
X143041235Y-90392726D01*
X142976135Y-90549891D01*
X142881624Y-90691336D01*
X142761335Y-90811625D01*
X142619890Y-90906136D01*
X142462725Y-90971236D01*
X142295879Y-91004423D01*
X142125765Y-91004423D01*
X141958919Y-90971236D01*
X141801754Y-90906136D01*
X141660309Y-90811625D01*
X141540020Y-90691336D01*
X141445509Y-90549891D01*
X141380409Y-90392726D01*
X141347222Y-90225880D01*
X141347222Y-90055766D01*
X141380409Y-89888920D01*
X141445509Y-89731755D01*
X141540020Y-89590310D01*
X141660309Y-89470021D01*
X141801754Y-89375510D01*
X141958919Y-89310410D01*
X142125765Y-89277223D01*
X142295879Y-89277223D01*
X142462725Y-89310410D01*
G37*
G36*
X111982725Y-89310410D02*
G01*
X112139890Y-89375510D01*
X112281335Y-89470021D01*
X112401624Y-89590310D01*
X112496135Y-89731755D01*
X112561235Y-89888920D01*
X112594422Y-90055766D01*
X112594422Y-90225880D01*
X112561235Y-90392726D01*
X112496135Y-90549891D01*
X112401624Y-90691336D01*
X112281335Y-90811625D01*
X112139890Y-90906136D01*
X111982725Y-90971236D01*
X111815879Y-91004423D01*
X111645765Y-91004423D01*
X111478919Y-90971236D01*
X111321754Y-90906136D01*
X111180309Y-90811625D01*
X111060020Y-90691336D01*
X110965509Y-90549891D01*
X110900409Y-90392726D01*
X110867222Y-90225880D01*
X110867222Y-90055766D01*
X110900409Y-89888920D01*
X110965509Y-89731755D01*
X111060020Y-89590310D01*
X111180309Y-89470021D01*
X111321754Y-89375510D01*
X111478919Y-89310410D01*
X111645765Y-89277223D01*
X111815879Y-89277223D01*
X111982725Y-89310410D01*
G37*
G36*
X139922725Y-89310410D02*
G01*
X140079890Y-89375510D01*
X140221335Y-89470021D01*
X140341624Y-89590310D01*
X140436135Y-89731755D01*
X140501235Y-89888920D01*
X140534422Y-90055766D01*
X140534422Y-90225880D01*
X140501235Y-90392726D01*
X140436135Y-90549891D01*
X140341624Y-90691336D01*
X140221335Y-90811625D01*
X140079890Y-90906136D01*
X139922725Y-90971236D01*
X139755879Y-91004423D01*
X139585765Y-91004423D01*
X139418919Y-90971236D01*
X139261754Y-90906136D01*
X139120309Y-90811625D01*
X139000020Y-90691336D01*
X138905509Y-90549891D01*
X138840409Y-90392726D01*
X138807222Y-90225880D01*
X138807222Y-90055766D01*
X138840409Y-89888920D01*
X138905509Y-89731755D01*
X139000020Y-89590310D01*
X139120309Y-89470021D01*
X139261754Y-89375510D01*
X139418919Y-89310410D01*
X139585765Y-89277223D01*
X139755879Y-89277223D01*
X139922725Y-89310410D01*
G37*
G36*
X137382725Y-89310410D02*
G01*
X137539890Y-89375510D01*
X137681335Y-89470021D01*
X137801624Y-89590310D01*
X137896135Y-89731755D01*
X137961235Y-89888920D01*
X137994422Y-90055766D01*
X137994422Y-90225880D01*
X137961235Y-90392726D01*
X137896135Y-90549891D01*
X137801624Y-90691336D01*
X137681335Y-90811625D01*
X137539890Y-90906136D01*
X137382725Y-90971236D01*
X137215879Y-91004423D01*
X137045765Y-91004423D01*
X136878919Y-90971236D01*
X136721754Y-90906136D01*
X136580309Y-90811625D01*
X136460020Y-90691336D01*
X136365509Y-90549891D01*
X136300409Y-90392726D01*
X136267222Y-90225880D01*
X136267222Y-90055766D01*
X136300409Y-89888920D01*
X136365509Y-89731755D01*
X136460020Y-89590310D01*
X136580309Y-89470021D01*
X136721754Y-89375510D01*
X136878919Y-89310410D01*
X137045765Y-89277223D01*
X137215879Y-89277223D01*
X137382725Y-89310410D01*
G37*
G36*
X134842725Y-89310410D02*
G01*
X134999890Y-89375510D01*
X135141335Y-89470021D01*
X135261624Y-89590310D01*
X135356135Y-89731755D01*
X135421235Y-89888920D01*
X135454422Y-90055766D01*
X135454422Y-90225880D01*
X135421235Y-90392726D01*
X135356135Y-90549891D01*
X135261624Y-90691336D01*
X135141335Y-90811625D01*
X134999890Y-90906136D01*
X134842725Y-90971236D01*
X134675879Y-91004423D01*
X134505765Y-91004423D01*
X134338919Y-90971236D01*
X134181754Y-90906136D01*
X134040309Y-90811625D01*
X133920020Y-90691336D01*
X133825509Y-90549891D01*
X133760409Y-90392726D01*
X133727222Y-90225880D01*
X133727222Y-90055766D01*
X133760409Y-89888920D01*
X133825509Y-89731755D01*
X133920020Y-89590310D01*
X134040309Y-89470021D01*
X134181754Y-89375510D01*
X134338919Y-89310410D01*
X134505765Y-89277223D01*
X134675879Y-89277223D01*
X134842725Y-89310410D01*
G37*
G36*
X132302725Y-89310410D02*
G01*
X132459890Y-89375510D01*
X132601335Y-89470021D01*
X132721624Y-89590310D01*
X132816135Y-89731755D01*
X132881235Y-89888920D01*
X132914422Y-90055766D01*
X132914422Y-90225880D01*
X132881235Y-90392726D01*
X132816135Y-90549891D01*
X132721624Y-90691336D01*
X132601335Y-90811625D01*
X132459890Y-90906136D01*
X132302725Y-90971236D01*
X132135879Y-91004423D01*
X131965765Y-91004423D01*
X131798919Y-90971236D01*
X131641754Y-90906136D01*
X131500309Y-90811625D01*
X131380020Y-90691336D01*
X131285509Y-90549891D01*
X131220409Y-90392726D01*
X131187222Y-90225880D01*
X131187222Y-90055766D01*
X131220409Y-89888920D01*
X131285509Y-89731755D01*
X131380020Y-89590310D01*
X131500309Y-89470021D01*
X131641754Y-89375510D01*
X131798919Y-89310410D01*
X131965765Y-89277223D01*
X132135879Y-89277223D01*
X132302725Y-89310410D01*
G37*
G36*
X129762725Y-89310410D02*
G01*
X129919890Y-89375510D01*
X130061335Y-89470021D01*
X130181624Y-89590310D01*
X130276135Y-89731755D01*
X130341235Y-89888920D01*
X130374422Y-90055766D01*
X130374422Y-90225880D01*
X130341235Y-90392726D01*
X130276135Y-90549891D01*
X130181624Y-90691336D01*
X130061335Y-90811625D01*
X129919890Y-90906136D01*
X129762725Y-90971236D01*
X129595879Y-91004423D01*
X129425765Y-91004423D01*
X129258919Y-90971236D01*
X129101754Y-90906136D01*
X128960309Y-90811625D01*
X128840020Y-90691336D01*
X128745509Y-90549891D01*
X128680409Y-90392726D01*
X128647222Y-90225880D01*
X128647222Y-90055766D01*
X128680409Y-89888920D01*
X128745509Y-89731755D01*
X128840020Y-89590310D01*
X128960309Y-89470021D01*
X129101754Y-89375510D01*
X129258919Y-89310410D01*
X129425765Y-89277223D01*
X129595879Y-89277223D01*
X129762725Y-89310410D01*
G37*
G36*
X117143765Y-86628620D02*
G01*
X117333288Y-86707123D01*
X117503854Y-86821092D01*
X117648908Y-86966146D01*
X117762877Y-87136712D01*
X117762878Y-87136714D01*
X117783001Y-87185295D01*
X117841380Y-87326235D01*
X117881400Y-87527431D01*
X117881400Y-87732569D01*
X117841380Y-87933765D01*
X117762877Y-88123288D01*
X117648908Y-88293854D01*
X117503854Y-88438908D01*
X117333288Y-88552877D01*
X117333287Y-88552878D01*
X117333286Y-88552878D01*
X117143765Y-88631380D01*
X116942570Y-88671400D01*
X116737430Y-88671400D01*
X116536235Y-88631380D01*
X116346714Y-88552878D01*
X116346713Y-88552878D01*
X116346712Y-88552877D01*
X116176146Y-88438908D01*
X116031092Y-88293854D01*
X115917123Y-88123288D01*
X115838620Y-87933765D01*
X115798600Y-87732569D01*
X115798600Y-87527431D01*
X115838620Y-87326235D01*
X115896999Y-87185295D01*
X115917122Y-87136714D01*
X115917123Y-87136712D01*
X116031092Y-86966146D01*
X116176146Y-86821092D01*
X116346712Y-86707123D01*
X116536235Y-86628620D01*
X116737430Y-86588600D01*
X116942570Y-86588600D01*
X117143765Y-86628620D01*
G37*
G36*
X155243765Y-86628620D02*
G01*
X155433288Y-86707123D01*
X155603854Y-86821092D01*
X155748908Y-86966146D01*
X155862877Y-87136712D01*
X155862878Y-87136714D01*
X155883001Y-87185295D01*
X155941380Y-87326235D01*
X155981400Y-87527431D01*
X155981400Y-87732569D01*
X155941380Y-87933765D01*
X155862877Y-88123288D01*
X155748908Y-88293854D01*
X155603854Y-88438908D01*
X155433288Y-88552877D01*
X155433287Y-88552878D01*
X155433286Y-88552878D01*
X155243765Y-88631380D01*
X155042570Y-88671400D01*
X154837430Y-88671400D01*
X154636235Y-88631380D01*
X154446714Y-88552878D01*
X154446713Y-88552878D01*
X154446712Y-88552877D01*
X154276146Y-88438908D01*
X154131092Y-88293854D01*
X154017123Y-88123288D01*
X153938620Y-87933765D01*
X153898600Y-87732569D01*
X153898600Y-87527431D01*
X153938620Y-87326235D01*
X153996999Y-87185295D01*
X154017122Y-87136714D01*
X154017123Y-87136712D01*
X154131092Y-86966146D01*
X154276146Y-86821092D01*
X154446712Y-86707123D01*
X154636235Y-86628620D01*
X154837430Y-86588600D01*
X155042570Y-86588600D01*
X155243765Y-86628620D01*
G37*
G36*
X152703765Y-86628620D02*
G01*
X152893288Y-86707123D01*
X153063854Y-86821092D01*
X153208908Y-86966146D01*
X153322877Y-87136712D01*
X153322878Y-87136714D01*
X153343001Y-87185295D01*
X153401380Y-87326235D01*
X153441400Y-87527431D01*
X153441400Y-87732569D01*
X153401380Y-87933765D01*
X153322877Y-88123288D01*
X153208908Y-88293854D01*
X153063854Y-88438908D01*
X152893288Y-88552877D01*
X152893287Y-88552878D01*
X152893286Y-88552878D01*
X152703765Y-88631380D01*
X152502570Y-88671400D01*
X152297430Y-88671400D01*
X152096235Y-88631380D01*
X151906714Y-88552878D01*
X151906713Y-88552878D01*
X151906712Y-88552877D01*
X151736146Y-88438908D01*
X151591092Y-88293854D01*
X151477123Y-88123288D01*
X151398620Y-87933765D01*
X151358600Y-87732569D01*
X151358600Y-87527431D01*
X151398620Y-87326235D01*
X151456999Y-87185295D01*
X151477122Y-87136714D01*
X151477123Y-87136712D01*
X151591092Y-86966146D01*
X151736146Y-86821092D01*
X151906712Y-86707123D01*
X152096235Y-86628620D01*
X152297430Y-86588600D01*
X152502570Y-86588600D01*
X152703765Y-86628620D01*
G37*
G36*
X150163765Y-86628620D02*
G01*
X150353288Y-86707123D01*
X150523854Y-86821092D01*
X150668908Y-86966146D01*
X150782877Y-87136712D01*
X150782878Y-87136714D01*
X150803001Y-87185295D01*
X150861380Y-87326235D01*
X150901400Y-87527431D01*
X150901400Y-87732569D01*
X150861380Y-87933765D01*
X150782877Y-88123288D01*
X150668908Y-88293854D01*
X150523854Y-88438908D01*
X150353288Y-88552877D01*
X150353287Y-88552878D01*
X150353286Y-88552878D01*
X150163765Y-88631380D01*
X149962570Y-88671400D01*
X149757430Y-88671400D01*
X149556235Y-88631380D01*
X149366714Y-88552878D01*
X149366713Y-88552878D01*
X149366712Y-88552877D01*
X149196146Y-88438908D01*
X149051092Y-88293854D01*
X148937123Y-88123288D01*
X148858620Y-87933765D01*
X148818600Y-87732569D01*
X148818600Y-87527431D01*
X148858620Y-87326235D01*
X148916999Y-87185295D01*
X148937122Y-87136714D01*
X148937123Y-87136712D01*
X149051092Y-86966146D01*
X149196146Y-86821092D01*
X149366712Y-86707123D01*
X149556235Y-86628620D01*
X149757430Y-86588600D01*
X149962570Y-86588600D01*
X150163765Y-86628620D01*
G37*
G36*
X147623765Y-86628620D02*
G01*
X147813288Y-86707123D01*
X147983854Y-86821092D01*
X148128908Y-86966146D01*
X148242877Y-87136712D01*
X148242878Y-87136714D01*
X148263001Y-87185295D01*
X148321380Y-87326235D01*
X148361400Y-87527431D01*
X148361400Y-87732569D01*
X148321380Y-87933765D01*
X148242877Y-88123288D01*
X148128908Y-88293854D01*
X147983854Y-88438908D01*
X147813288Y-88552877D01*
X147813287Y-88552878D01*
X147813286Y-88552878D01*
X147623765Y-88631380D01*
X147422570Y-88671400D01*
X147217430Y-88671400D01*
X147016235Y-88631380D01*
X146826714Y-88552878D01*
X146826713Y-88552878D01*
X146826712Y-88552877D01*
X146656146Y-88438908D01*
X146511092Y-88293854D01*
X146397123Y-88123288D01*
X146318620Y-87933765D01*
X146278600Y-87732569D01*
X146278600Y-87527431D01*
X146318620Y-87326235D01*
X146376999Y-87185295D01*
X146397122Y-87136714D01*
X146397123Y-87136712D01*
X146511092Y-86966146D01*
X146656146Y-86821092D01*
X146826712Y-86707123D01*
X147016235Y-86628620D01*
X147217430Y-86588600D01*
X147422570Y-86588600D01*
X147623765Y-86628620D01*
G37*
G36*
X145083765Y-86628620D02*
G01*
X145273288Y-86707123D01*
X145443854Y-86821092D01*
X145588908Y-86966146D01*
X145702877Y-87136712D01*
X145702878Y-87136714D01*
X145723001Y-87185295D01*
X145781380Y-87326235D01*
X145821400Y-87527431D01*
X145821400Y-87732569D01*
X145781380Y-87933765D01*
X145702877Y-88123288D01*
X145588908Y-88293854D01*
X145443854Y-88438908D01*
X145273288Y-88552877D01*
X145273287Y-88552878D01*
X145273286Y-88552878D01*
X145083765Y-88631380D01*
X144882570Y-88671400D01*
X144677430Y-88671400D01*
X144476235Y-88631380D01*
X144286714Y-88552878D01*
X144286713Y-88552878D01*
X144286712Y-88552877D01*
X144116146Y-88438908D01*
X143971092Y-88293854D01*
X143857123Y-88123288D01*
X143778620Y-87933765D01*
X143738600Y-87732569D01*
X143738600Y-87527431D01*
X143778620Y-87326235D01*
X143836999Y-87185295D01*
X143857122Y-87136714D01*
X143857123Y-87136712D01*
X143971092Y-86966146D01*
X144116146Y-86821092D01*
X144286712Y-86707123D01*
X144476235Y-86628620D01*
X144677430Y-86588600D01*
X144882570Y-86588600D01*
X145083765Y-86628620D01*
G37*
G36*
X142543765Y-86628620D02*
G01*
X142733288Y-86707123D01*
X142903854Y-86821092D01*
X143048908Y-86966146D01*
X143162877Y-87136712D01*
X143162878Y-87136714D01*
X143183001Y-87185295D01*
X143241380Y-87326235D01*
X143281400Y-87527431D01*
X143281400Y-87732569D01*
X143241380Y-87933765D01*
X143162877Y-88123288D01*
X143048908Y-88293854D01*
X142903854Y-88438908D01*
X142733288Y-88552877D01*
X142733287Y-88552878D01*
X142733286Y-88552878D01*
X142543765Y-88631380D01*
X142342570Y-88671400D01*
X142137430Y-88671400D01*
X141936235Y-88631380D01*
X141746714Y-88552878D01*
X141746713Y-88552878D01*
X141746712Y-88552877D01*
X141576146Y-88438908D01*
X141431092Y-88293854D01*
X141317123Y-88123288D01*
X141238620Y-87933765D01*
X141198600Y-87732569D01*
X141198600Y-87527431D01*
X141238620Y-87326235D01*
X141296999Y-87185295D01*
X141317122Y-87136714D01*
X141317123Y-87136712D01*
X141431092Y-86966146D01*
X141576146Y-86821092D01*
X141746712Y-86707123D01*
X141936235Y-86628620D01*
X142137430Y-86588600D01*
X142342570Y-86588600D01*
X142543765Y-86628620D01*
G37*
G36*
X140003765Y-86628620D02*
G01*
X140193288Y-86707123D01*
X140363854Y-86821092D01*
X140508908Y-86966146D01*
X140622877Y-87136712D01*
X140622878Y-87136714D01*
X140643001Y-87185295D01*
X140701380Y-87326235D01*
X140741400Y-87527431D01*
X140741400Y-87732569D01*
X140701380Y-87933765D01*
X140622877Y-88123288D01*
X140508908Y-88293854D01*
X140363854Y-88438908D01*
X140193288Y-88552877D01*
X140193287Y-88552878D01*
X140193286Y-88552878D01*
X140003765Y-88631380D01*
X139802570Y-88671400D01*
X139597430Y-88671400D01*
X139396235Y-88631380D01*
X139206714Y-88552878D01*
X139206713Y-88552878D01*
X139206712Y-88552877D01*
X139036146Y-88438908D01*
X138891092Y-88293854D01*
X138777123Y-88123288D01*
X138698620Y-87933765D01*
X138658600Y-87732569D01*
X138658600Y-87527431D01*
X138698620Y-87326235D01*
X138756999Y-87185295D01*
X138777122Y-87136714D01*
X138777123Y-87136712D01*
X138891092Y-86966146D01*
X139036146Y-86821092D01*
X139206712Y-86707123D01*
X139396235Y-86628620D01*
X139597430Y-86588600D01*
X139802570Y-86588600D01*
X140003765Y-86628620D01*
G37*
G36*
X137463765Y-86628620D02*
G01*
X137653288Y-86707123D01*
X137823854Y-86821092D01*
X137968908Y-86966146D01*
X138082877Y-87136712D01*
X138082878Y-87136714D01*
X138103001Y-87185295D01*
X138161380Y-87326235D01*
X138201400Y-87527431D01*
X138201400Y-87732569D01*
X138161380Y-87933765D01*
X138082877Y-88123288D01*
X137968908Y-88293854D01*
X137823854Y-88438908D01*
X137653288Y-88552877D01*
X137653287Y-88552878D01*
X137653286Y-88552878D01*
X137463765Y-88631380D01*
X137262570Y-88671400D01*
X137057430Y-88671400D01*
X136856235Y-88631380D01*
X136666714Y-88552878D01*
X136666713Y-88552878D01*
X136666712Y-88552877D01*
X136496146Y-88438908D01*
X136351092Y-88293854D01*
X136237123Y-88123288D01*
X136158620Y-87933765D01*
X136118600Y-87732569D01*
X136118600Y-87527431D01*
X136158620Y-87326235D01*
X136216999Y-87185295D01*
X136237122Y-87136714D01*
X136237123Y-87136712D01*
X136351092Y-86966146D01*
X136496146Y-86821092D01*
X136666712Y-86707123D01*
X136856235Y-86628620D01*
X137057430Y-86588600D01*
X137262570Y-86588600D01*
X137463765Y-86628620D01*
G37*
G36*
X134923765Y-86628620D02*
G01*
X135113288Y-86707123D01*
X135283854Y-86821092D01*
X135428908Y-86966146D01*
X135542877Y-87136712D01*
X135542878Y-87136714D01*
X135563001Y-87185295D01*
X135621380Y-87326235D01*
X135661400Y-87527431D01*
X135661400Y-87732569D01*
X135621380Y-87933765D01*
X135542877Y-88123288D01*
X135428908Y-88293854D01*
X135283854Y-88438908D01*
X135113288Y-88552877D01*
X135113287Y-88552878D01*
X135113286Y-88552878D01*
X134923765Y-88631380D01*
X134722570Y-88671400D01*
X134517430Y-88671400D01*
X134316235Y-88631380D01*
X134126714Y-88552878D01*
X134126713Y-88552878D01*
X134126712Y-88552877D01*
X133956146Y-88438908D01*
X133811092Y-88293854D01*
X133697123Y-88123288D01*
X133618620Y-87933765D01*
X133578600Y-87732569D01*
X133578600Y-87527431D01*
X133618620Y-87326235D01*
X133676999Y-87185295D01*
X133697122Y-87136714D01*
X133697123Y-87136712D01*
X133811092Y-86966146D01*
X133956146Y-86821092D01*
X134126712Y-86707123D01*
X134316235Y-86628620D01*
X134517430Y-86588600D01*
X134722570Y-86588600D01*
X134923765Y-86628620D01*
G37*
G36*
X132383765Y-86628620D02*
G01*
X132573288Y-86707123D01*
X132743854Y-86821092D01*
X132888908Y-86966146D01*
X133002877Y-87136712D01*
X133002878Y-87136714D01*
X133023001Y-87185295D01*
X133081380Y-87326235D01*
X133121400Y-87527431D01*
X133121400Y-87732569D01*
X133081380Y-87933765D01*
X133002877Y-88123288D01*
X132888908Y-88293854D01*
X132743854Y-88438908D01*
X132573288Y-88552877D01*
X132573287Y-88552878D01*
X132573286Y-88552878D01*
X132383765Y-88631380D01*
X132182570Y-88671400D01*
X131977430Y-88671400D01*
X131776235Y-88631380D01*
X131586714Y-88552878D01*
X131586713Y-88552878D01*
X131586712Y-88552877D01*
X131416146Y-88438908D01*
X131271092Y-88293854D01*
X131157123Y-88123288D01*
X131078620Y-87933765D01*
X131038600Y-87732569D01*
X131038600Y-87527431D01*
X131078620Y-87326235D01*
X131136999Y-87185295D01*
X131157122Y-87136714D01*
X131157123Y-87136712D01*
X131271092Y-86966146D01*
X131416146Y-86821092D01*
X131586712Y-86707123D01*
X131776235Y-86628620D01*
X131977430Y-86588600D01*
X132182570Y-86588600D01*
X132383765Y-86628620D01*
G37*
G36*
X119683765Y-86628620D02*
G01*
X119873288Y-86707123D01*
X120043854Y-86821092D01*
X120188908Y-86966146D01*
X120302877Y-87136712D01*
X120302878Y-87136714D01*
X120323001Y-87185295D01*
X120381380Y-87326235D01*
X120421400Y-87527431D01*
X120421400Y-87732569D01*
X120381380Y-87933765D01*
X120302877Y-88123288D01*
X120188908Y-88293854D01*
X120043854Y-88438908D01*
X119873288Y-88552877D01*
X119873287Y-88552878D01*
X119873286Y-88552878D01*
X119683765Y-88631380D01*
X119482570Y-88671400D01*
X119277430Y-88671400D01*
X119076235Y-88631380D01*
X118886714Y-88552878D01*
X118886713Y-88552878D01*
X118886712Y-88552877D01*
X118716146Y-88438908D01*
X118571092Y-88293854D01*
X118457123Y-88123288D01*
X118378620Y-87933765D01*
X118338600Y-87732569D01*
X118338600Y-87527431D01*
X118378620Y-87326235D01*
X118436999Y-87185295D01*
X118457122Y-87136714D01*
X118457123Y-87136712D01*
X118571092Y-86966146D01*
X118716146Y-86821092D01*
X118886712Y-86707123D01*
X119076235Y-86628620D01*
X119277430Y-86588600D01*
X119482570Y-86588600D01*
X119683765Y-86628620D01*
G37*
G36*
X114603765Y-86628620D02*
G01*
X114793288Y-86707123D01*
X114963854Y-86821092D01*
X115108908Y-86966146D01*
X115222877Y-87136712D01*
X115222878Y-87136714D01*
X115243001Y-87185295D01*
X115301380Y-87326235D01*
X115341400Y-87527431D01*
X115341400Y-87732569D01*
X115301380Y-87933765D01*
X115222877Y-88123288D01*
X115108908Y-88293854D01*
X114963854Y-88438908D01*
X114793288Y-88552877D01*
X114793287Y-88552878D01*
X114793286Y-88552878D01*
X114603765Y-88631380D01*
X114402570Y-88671400D01*
X114197430Y-88671400D01*
X113996235Y-88631380D01*
X113806714Y-88552878D01*
X113806713Y-88552878D01*
X113806712Y-88552877D01*
X113636146Y-88438908D01*
X113491092Y-88293854D01*
X113377123Y-88123288D01*
X113298620Y-87933765D01*
X113258600Y-87732569D01*
X113258600Y-87527431D01*
X113298620Y-87326235D01*
X113356999Y-87185295D01*
X113377122Y-87136714D01*
X113377123Y-87136712D01*
X113491092Y-86966146D01*
X113636146Y-86821092D01*
X113806712Y-86707123D01*
X113996235Y-86628620D01*
X114197430Y-86588600D01*
X114402570Y-86588600D01*
X114603765Y-86628620D01*
G37*
G36*
X101334561Y-85442966D02*
G01*
X101367383Y-85452923D01*
X101397632Y-85469092D01*
X101424148Y-85490852D01*
X101445908Y-85517368D01*
X101462077Y-85547617D01*
X101472034Y-85580439D01*
X101476000Y-85620713D01*
X101476000Y-87099287D01*
X101472034Y-87139561D01*
X101462077Y-87172383D01*
X101445908Y-87202632D01*
X101424148Y-87229148D01*
X101397632Y-87250908D01*
X101367383Y-87267077D01*
X101334561Y-87277034D01*
X101294287Y-87281000D01*
X99365713Y-87281000D01*
X99325439Y-87277034D01*
X99292617Y-87267077D01*
X99262368Y-87250908D01*
X99235852Y-87229148D01*
X99214092Y-87202632D01*
X99197923Y-87172383D01*
X99187966Y-87139561D01*
X99184000Y-87099287D01*
X99184000Y-85620713D01*
X99187966Y-85580439D01*
X99197923Y-85547617D01*
X99214092Y-85517368D01*
X99235852Y-85490852D01*
X99262368Y-85469092D01*
X99292617Y-85452923D01*
X99325439Y-85442966D01*
X99365713Y-85439000D01*
X101294287Y-85439000D01*
X101334561Y-85442966D01*
G37*
G36*
X110123805Y-85498856D02*
G01*
X110285084Y-85547780D01*
X110433721Y-85627228D01*
X110564005Y-85734148D01*
X110670925Y-85864432D01*
X110750373Y-86013069D01*
X110799297Y-86174348D01*
X110815816Y-86342076D01*
X110799297Y-86509804D01*
X110750373Y-86671083D01*
X110670925Y-86819720D01*
X110564005Y-86950004D01*
X110433721Y-87056924D01*
X110285084Y-87136372D01*
X110123805Y-87185296D01*
X109998104Y-87197676D01*
X108406050Y-87197676D01*
X108280349Y-87185296D01*
X108119070Y-87136372D01*
X107970433Y-87056924D01*
X107840149Y-86950004D01*
X107733229Y-86819720D01*
X107653781Y-86671083D01*
X107604857Y-86509804D01*
X107588338Y-86342076D01*
X107604857Y-86174348D01*
X107653781Y-86013069D01*
X107733229Y-85864432D01*
X107840149Y-85734148D01*
X107970433Y-85627228D01*
X108119070Y-85547780D01*
X108280349Y-85498856D01*
X108406050Y-85486476D01*
X109998104Y-85486476D01*
X110123805Y-85498856D01*
G37*
G36*
X100645345Y-82903442D02*
G01*
X100735548Y-82912326D01*
X100909157Y-82964990D01*
X101069156Y-83050511D01*
X101112729Y-83086271D01*
X101209397Y-83165603D01*
X101264342Y-83232555D01*
X101324489Y-83305844D01*
X101410010Y-83465843D01*
X101462674Y-83639452D01*
X101480456Y-83820000D01*
X101462674Y-84000548D01*
X101410010Y-84174157D01*
X101324489Y-84334156D01*
X101288729Y-84377729D01*
X101209397Y-84474397D01*
X101112729Y-84553729D01*
X101069156Y-84589489D01*
X100909157Y-84675010D01*
X100735548Y-84727674D01*
X100645345Y-84736558D01*
X100600245Y-84741000D01*
X100059755Y-84741000D01*
X100014655Y-84736558D01*
X99924452Y-84727674D01*
X99750843Y-84675010D01*
X99590844Y-84589489D01*
X99547271Y-84553729D01*
X99450603Y-84474397D01*
X99371271Y-84377729D01*
X99335511Y-84334156D01*
X99249990Y-84174157D01*
X99197326Y-84000548D01*
X99179544Y-83820000D01*
X99197326Y-83639452D01*
X99249990Y-83465843D01*
X99335511Y-83305844D01*
X99395658Y-83232555D01*
X99450603Y-83165603D01*
X99547271Y-83086271D01*
X99590844Y-83050511D01*
X99750843Y-82964990D01*
X99924452Y-82912326D01*
X100014655Y-82903442D01*
X100059755Y-82899000D01*
X100600245Y-82899000D01*
X100645345Y-82903442D01*
G37*
G36*
X110123805Y-82958856D02*
G01*
X110285084Y-83007780D01*
X110433721Y-83087228D01*
X110564005Y-83194148D01*
X110670925Y-83324432D01*
X110750373Y-83473069D01*
X110799297Y-83634348D01*
X110815816Y-83802076D01*
X110799297Y-83969804D01*
X110750373Y-84131083D01*
X110670925Y-84279720D01*
X110564005Y-84410004D01*
X110433721Y-84516924D01*
X110285084Y-84596372D01*
X110123805Y-84645296D01*
X109998104Y-84657676D01*
X108406050Y-84657676D01*
X108280349Y-84645296D01*
X108119070Y-84596372D01*
X107970433Y-84516924D01*
X107840149Y-84410004D01*
X107733229Y-84279720D01*
X107653781Y-84131083D01*
X107604857Y-83969804D01*
X107588338Y-83802076D01*
X107604857Y-83634348D01*
X107653781Y-83473069D01*
X107733229Y-83324432D01*
X107840149Y-83194148D01*
X107970433Y-83087228D01*
X108119070Y-83007780D01*
X108280349Y-82958856D01*
X108406050Y-82946476D01*
X109998104Y-82946476D01*
X110123805Y-82958856D01*
G37*
G36*
X167918412Y-80825805D02*
G01*
X168056604Y-80839416D01*
X168322579Y-80920099D01*
X168322581Y-80920100D01*
X168567701Y-81051119D01*
X168782556Y-81227444D01*
X168958880Y-81442298D01*
X169089901Y-81687421D01*
X169170584Y-81953396D01*
X169197827Y-82230000D01*
X169170584Y-82506604D01*
X169089901Y-82772579D01*
X169089900Y-82772581D01*
X168958881Y-83017701D01*
X168782556Y-83232556D01*
X168567701Y-83408881D01*
X168461132Y-83465843D01*
X168322579Y-83539901D01*
X168056604Y-83620584D01*
X167918412Y-83634195D01*
X167849317Y-83641000D01*
X167190683Y-83641000D01*
X167121588Y-83634195D01*
X166983396Y-83620584D01*
X166717421Y-83539901D01*
X166578868Y-83465843D01*
X166472299Y-83408881D01*
X166257444Y-83232556D01*
X166081119Y-83017701D01*
X165950100Y-82772581D01*
X165950099Y-82772579D01*
X165869416Y-82506604D01*
X165842173Y-82230000D01*
X165869416Y-81953396D01*
X165950099Y-81687421D01*
X166081120Y-81442298D01*
X166257444Y-81227444D01*
X166472299Y-81051119D01*
X166717419Y-80920100D01*
X166717421Y-80920099D01*
X166983396Y-80839416D01*
X167121588Y-80825805D01*
X167190683Y-80819000D01*
X167849317Y-80819000D01*
X167918412Y-80825805D01*
G37*
G36*
X100645345Y-80363442D02*
G01*
X100735548Y-80372326D01*
X100909157Y-80424990D01*
X101069156Y-80510511D01*
X101112729Y-80546271D01*
X101209397Y-80625603D01*
X101288729Y-80722271D01*
X101324489Y-80765844D01*
X101410010Y-80925843D01*
X101462674Y-81099452D01*
X101480456Y-81280000D01*
X101462674Y-81460548D01*
X101410010Y-81634157D01*
X101324489Y-81794156D01*
X101288729Y-81837729D01*
X101209397Y-81934397D01*
X101112729Y-82013729D01*
X101069156Y-82049489D01*
X100909157Y-82135010D01*
X100735548Y-82187674D01*
X100645345Y-82196558D01*
X100600245Y-82201000D01*
X100059755Y-82201000D01*
X100014655Y-82196558D01*
X99924452Y-82187674D01*
X99750843Y-82135010D01*
X99590844Y-82049489D01*
X99547271Y-82013729D01*
X99450603Y-81934397D01*
X99371271Y-81837729D01*
X99335511Y-81794156D01*
X99249990Y-81634157D01*
X99197326Y-81460548D01*
X99179544Y-81280000D01*
X99197326Y-81099452D01*
X99249990Y-80925843D01*
X99335511Y-80765844D01*
X99371271Y-80722271D01*
X99450603Y-80625603D01*
X99547271Y-80546271D01*
X99590844Y-80510511D01*
X99750843Y-80424990D01*
X99924452Y-80372326D01*
X100014655Y-80363442D01*
X100059755Y-80359000D01*
X100600245Y-80359000D01*
X100645345Y-80363442D01*
G37*
G36*
X110123805Y-80418856D02*
G01*
X110285084Y-80467780D01*
X110433721Y-80547228D01*
X110564005Y-80654148D01*
X110670925Y-80784432D01*
X110750373Y-80933069D01*
X110799297Y-81094348D01*
X110815816Y-81262076D01*
X110799297Y-81429804D01*
X110750373Y-81591083D01*
X110670925Y-81739720D01*
X110564005Y-81870004D01*
X110433721Y-81976924D01*
X110285084Y-82056372D01*
X110123805Y-82105296D01*
X109998104Y-82117676D01*
X108406050Y-82117676D01*
X108280349Y-82105296D01*
X108119070Y-82056372D01*
X107970433Y-81976924D01*
X107840149Y-81870004D01*
X107733229Y-81739720D01*
X107653781Y-81591083D01*
X107604857Y-81429804D01*
X107588338Y-81262076D01*
X107604857Y-81094348D01*
X107653781Y-80933069D01*
X107733229Y-80784432D01*
X107840149Y-80654148D01*
X107970433Y-80547228D01*
X108119070Y-80467780D01*
X108280349Y-80418856D01*
X108406050Y-80406476D01*
X109998104Y-80406476D01*
X110123805Y-80418856D01*
G37*
G36*
X160297395Y-79015546D02*
G01*
X160470466Y-79087234D01*
X160470467Y-79087235D01*
X160626227Y-79191310D01*
X160758690Y-79323773D01*
X160758691Y-79323775D01*
X160862766Y-79479534D01*
X160934454Y-79652605D01*
X160971000Y-79836333D01*
X160971000Y-80023667D01*
X160934454Y-80207395D01*
X160862766Y-80380466D01*
X160837114Y-80418857D01*
X160758690Y-80536227D01*
X160626227Y-80668690D01*
X160547818Y-80721081D01*
X160470466Y-80772766D01*
X160297395Y-80844454D01*
X160113667Y-80881000D01*
X159926333Y-80881000D01*
X159742605Y-80844454D01*
X159569534Y-80772766D01*
X159492182Y-80721081D01*
X159413773Y-80668690D01*
X159281310Y-80536227D01*
X159202886Y-80418857D01*
X159177234Y-80380466D01*
X159105546Y-80207395D01*
X159069000Y-80023667D01*
X159069000Y-79836333D01*
X159105546Y-79652605D01*
X159177234Y-79479534D01*
X159281309Y-79323775D01*
X159281310Y-79323773D01*
X159413773Y-79191310D01*
X159569533Y-79087235D01*
X159569534Y-79087234D01*
X159742605Y-79015546D01*
X159926333Y-78979000D01*
X160113667Y-78979000D01*
X160297395Y-79015546D01*
G37*
G36*
X160297395Y-76515546D02*
G01*
X160470466Y-76587234D01*
X160470467Y-76587235D01*
X160626227Y-76691310D01*
X160758690Y-76823773D01*
X160758691Y-76823775D01*
X160862766Y-76979534D01*
X160934454Y-77152605D01*
X160971000Y-77336333D01*
X160971000Y-77523667D01*
X160934454Y-77707395D01*
X160862766Y-77880466D01*
X160862765Y-77880467D01*
X160758690Y-78036227D01*
X160626227Y-78168690D01*
X160547818Y-78221081D01*
X160470466Y-78272766D01*
X160297395Y-78344454D01*
X160113667Y-78381000D01*
X159926333Y-78381000D01*
X159742605Y-78344454D01*
X159569534Y-78272766D01*
X159492182Y-78221081D01*
X159413773Y-78168690D01*
X159281310Y-78036227D01*
X159177235Y-77880467D01*
X159177234Y-77880466D01*
X159105546Y-77707395D01*
X159069000Y-77523667D01*
X159069000Y-77336333D01*
X159105546Y-77152605D01*
X159177234Y-76979534D01*
X159281309Y-76823775D01*
X159281310Y-76823773D01*
X159413773Y-76691310D01*
X159569533Y-76587235D01*
X159569534Y-76587234D01*
X159742605Y-76515546D01*
X159926333Y-76479000D01*
X160113667Y-76479000D01*
X160297395Y-76515546D01*
G37*
G36*
X101334561Y-75282966D02*
G01*
X101367383Y-75292923D01*
X101397632Y-75309092D01*
X101424148Y-75330852D01*
X101445908Y-75357368D01*
X101462077Y-75387617D01*
X101472034Y-75420439D01*
X101476000Y-75460713D01*
X101476000Y-76939287D01*
X101472034Y-76979561D01*
X101462077Y-77012383D01*
X101445908Y-77042632D01*
X101424148Y-77069148D01*
X101397632Y-77090908D01*
X101367383Y-77107077D01*
X101334561Y-77117034D01*
X101294287Y-77121000D01*
X99365713Y-77121000D01*
X99325439Y-77117034D01*
X99292617Y-77107077D01*
X99262368Y-77090908D01*
X99235852Y-77069148D01*
X99214092Y-77042632D01*
X99197923Y-77012383D01*
X99187966Y-76979561D01*
X99184000Y-76939287D01*
X99184000Y-75460713D01*
X99187966Y-75420439D01*
X99197923Y-75387617D01*
X99214092Y-75357368D01*
X99235852Y-75330852D01*
X99262368Y-75309092D01*
X99292617Y-75292923D01*
X99325439Y-75282966D01*
X99365713Y-75279000D01*
X101294287Y-75279000D01*
X101334561Y-75282966D01*
G37*
G36*
X110123805Y-75338856D02*
G01*
X110285084Y-75387780D01*
X110433721Y-75467228D01*
X110564005Y-75574148D01*
X110670925Y-75704432D01*
X110750373Y-75853069D01*
X110799297Y-76014348D01*
X110815816Y-76182076D01*
X110799297Y-76349804D01*
X110750373Y-76511083D01*
X110670925Y-76659720D01*
X110564005Y-76790004D01*
X110433721Y-76896924D01*
X110285084Y-76976372D01*
X110123805Y-77025296D01*
X109998104Y-77037676D01*
X108406050Y-77037676D01*
X108280349Y-77025296D01*
X108119070Y-76976372D01*
X107970433Y-76896924D01*
X107840149Y-76790004D01*
X107733229Y-76659720D01*
X107653781Y-76511083D01*
X107604857Y-76349804D01*
X107588338Y-76182076D01*
X107604857Y-76014348D01*
X107653781Y-75853069D01*
X107733229Y-75704432D01*
X107840149Y-75574148D01*
X107970433Y-75467228D01*
X108119070Y-75387780D01*
X108280349Y-75338856D01*
X108406050Y-75326476D01*
X109998104Y-75326476D01*
X110123805Y-75338856D01*
G37*
G36*
X160971000Y-75881000D02*
G01*
X159069000Y-75881000D01*
X159069000Y-73979000D01*
X160971000Y-73979000D01*
X160971000Y-75881000D01*
G37*
G36*
X100645345Y-72743442D02*
G01*
X100735548Y-72752326D01*
X100909157Y-72804990D01*
X101069156Y-72890511D01*
X101088765Y-72906604D01*
X101209397Y-73005603D01*
X101288729Y-73102271D01*
X101324489Y-73145844D01*
X101410010Y-73305843D01*
X101462674Y-73479452D01*
X101480456Y-73660000D01*
X101462674Y-73840548D01*
X101410010Y-74014157D01*
X101324489Y-74174156D01*
X101288729Y-74217729D01*
X101209397Y-74314397D01*
X101112729Y-74393729D01*
X101069156Y-74429489D01*
X100909157Y-74515010D01*
X100735548Y-74567674D01*
X100645345Y-74576558D01*
X100600245Y-74581000D01*
X100059755Y-74581000D01*
X100014655Y-74576558D01*
X99924452Y-74567674D01*
X99750843Y-74515010D01*
X99590844Y-74429489D01*
X99547271Y-74393729D01*
X99450603Y-74314397D01*
X99371271Y-74217729D01*
X99335511Y-74174156D01*
X99249990Y-74014157D01*
X99197326Y-73840548D01*
X99179544Y-73660000D01*
X99197326Y-73479452D01*
X99249990Y-73305843D01*
X99335511Y-73145844D01*
X99371271Y-73102271D01*
X99450603Y-73005603D01*
X99571235Y-72906604D01*
X99590844Y-72890511D01*
X99750843Y-72804990D01*
X99924452Y-72752326D01*
X100014655Y-72743442D01*
X100059755Y-72739000D01*
X100600245Y-72739000D01*
X100645345Y-72743442D01*
G37*
G36*
X110123805Y-72798856D02*
G01*
X110285084Y-72847780D01*
X110433721Y-72927228D01*
X110564005Y-73034148D01*
X110670925Y-73164432D01*
X110750373Y-73313069D01*
X110799297Y-73474348D01*
X110815816Y-73642076D01*
X110799297Y-73809804D01*
X110750373Y-73971083D01*
X110670925Y-74119720D01*
X110564005Y-74250004D01*
X110433721Y-74356924D01*
X110285084Y-74436372D01*
X110123805Y-74485296D01*
X109998104Y-74497676D01*
X108406050Y-74497676D01*
X108280349Y-74485296D01*
X108119070Y-74436372D01*
X107970433Y-74356924D01*
X107840149Y-74250004D01*
X107733229Y-74119720D01*
X107653781Y-73971083D01*
X107604857Y-73809804D01*
X107588338Y-73642076D01*
X107604857Y-73474348D01*
X107653781Y-73313069D01*
X107733229Y-73164432D01*
X107840149Y-73034148D01*
X107970433Y-72927228D01*
X108119070Y-72847780D01*
X108280349Y-72798856D01*
X108406050Y-72786476D01*
X109998104Y-72786476D01*
X110123805Y-72798856D01*
G37*
G36*
X167918412Y-71225805D02*
G01*
X168056604Y-71239416D01*
X168322579Y-71320099D01*
X168322581Y-71320100D01*
X168567701Y-71451119D01*
X168782556Y-71627444D01*
X168958881Y-71842299D01*
X169089900Y-72087419D01*
X169089901Y-72087421D01*
X169170584Y-72353396D01*
X169197827Y-72630000D01*
X169170584Y-72906604D01*
X169092372Y-73164432D01*
X169089900Y-73172581D01*
X168958881Y-73417701D01*
X168782556Y-73632556D01*
X168567701Y-73808881D01*
X168322581Y-73939900D01*
X168322579Y-73939901D01*
X168056604Y-74020584D01*
X167918412Y-74034195D01*
X167849317Y-74041000D01*
X167190683Y-74041000D01*
X167121588Y-74034195D01*
X166983396Y-74020584D01*
X166717421Y-73939901D01*
X166717419Y-73939900D01*
X166472299Y-73808881D01*
X166257444Y-73632556D01*
X166081119Y-73417701D01*
X165950100Y-73172581D01*
X165947628Y-73164432D01*
X165869416Y-72906604D01*
X165842173Y-72630000D01*
X165869416Y-72353396D01*
X165950099Y-72087421D01*
X165950100Y-72087419D01*
X166081119Y-71842299D01*
X166257444Y-71627444D01*
X166472299Y-71451119D01*
X166717419Y-71320100D01*
X166717421Y-71320099D01*
X166983396Y-71239416D01*
X167121588Y-71225805D01*
X167190683Y-71219000D01*
X167849317Y-71219000D01*
X167918412Y-71225805D01*
G37*
G36*
X100645345Y-70203442D02*
G01*
X100735548Y-70212326D01*
X100909157Y-70264990D01*
X101069156Y-70350511D01*
X101112729Y-70386271D01*
X101209397Y-70465603D01*
X101288729Y-70562271D01*
X101324489Y-70605844D01*
X101410010Y-70765843D01*
X101462674Y-70939452D01*
X101480456Y-71120000D01*
X101462674Y-71300548D01*
X101410010Y-71474157D01*
X101324489Y-71634156D01*
X101288729Y-71677729D01*
X101209397Y-71774397D01*
X101126658Y-71842298D01*
X101069156Y-71889489D01*
X100909157Y-71975010D01*
X100735548Y-72027674D01*
X100645345Y-72036558D01*
X100600245Y-72041000D01*
X100059755Y-72041000D01*
X100014655Y-72036558D01*
X99924452Y-72027674D01*
X99750843Y-71975010D01*
X99590844Y-71889489D01*
X99533342Y-71842298D01*
X99450603Y-71774397D01*
X99371271Y-71677729D01*
X99335511Y-71634156D01*
X99249990Y-71474157D01*
X99197326Y-71300548D01*
X99179544Y-71120000D01*
X99197326Y-70939452D01*
X99249990Y-70765843D01*
X99335511Y-70605844D01*
X99371271Y-70562271D01*
X99450603Y-70465603D01*
X99547271Y-70386271D01*
X99590844Y-70350511D01*
X99750843Y-70264990D01*
X99924452Y-70212326D01*
X100014655Y-70203442D01*
X100059755Y-70199000D01*
X100600245Y-70199000D01*
X100645345Y-70203442D01*
G37*
G36*
X110123805Y-70258856D02*
G01*
X110285084Y-70307780D01*
X110433721Y-70387228D01*
X110564005Y-70494148D01*
X110670925Y-70624432D01*
X110750373Y-70773069D01*
X110799297Y-70934348D01*
X110815816Y-71102076D01*
X110799297Y-71269804D01*
X110750373Y-71431083D01*
X110670925Y-71579720D01*
X110564005Y-71710004D01*
X110433721Y-71816924D01*
X110285084Y-71896372D01*
X110123805Y-71945296D01*
X109998104Y-71957676D01*
X108406050Y-71957676D01*
X108280349Y-71945296D01*
X108119070Y-71896372D01*
X107970433Y-71816924D01*
X107840149Y-71710004D01*
X107733229Y-71579720D01*
X107653781Y-71431083D01*
X107604857Y-71269804D01*
X107588338Y-71102076D01*
X107604857Y-70934348D01*
X107653781Y-70773069D01*
X107733229Y-70624432D01*
X107840149Y-70494148D01*
X107970433Y-70387228D01*
X108119070Y-70307780D01*
X108280349Y-70258856D01*
X108406050Y-70246476D01*
X109998104Y-70246476D01*
X110123805Y-70258856D01*
G37*
G36*
X114533306Y-66460990D02*
G01*
X114690471Y-66526090D01*
X114831916Y-66620601D01*
X114952205Y-66740890D01*
X115046716Y-66882335D01*
X115111816Y-67039500D01*
X115145003Y-67206346D01*
X115145003Y-67376460D01*
X115111816Y-67543306D01*
X115046716Y-67700471D01*
X114952205Y-67841916D01*
X114831916Y-67962205D01*
X114690471Y-68056716D01*
X114533306Y-68121816D01*
X114366460Y-68155003D01*
X114196346Y-68155003D01*
X114029500Y-68121816D01*
X113872335Y-68056716D01*
X113730890Y-67962205D01*
X113610601Y-67841916D01*
X113516090Y-67700471D01*
X113450990Y-67543306D01*
X113417803Y-67376460D01*
X113417803Y-67206346D01*
X113450990Y-67039500D01*
X113516090Y-66882335D01*
X113610601Y-66740890D01*
X113730890Y-66620601D01*
X113872335Y-66526090D01*
X114029500Y-66460990D01*
X114196346Y-66427803D01*
X114366460Y-66427803D01*
X114533306Y-66460990D01*
G37*
G36*
X132313306Y-66460990D02*
G01*
X132470471Y-66526090D01*
X132611916Y-66620601D01*
X132732205Y-66740890D01*
X132826716Y-66882335D01*
X132891816Y-67039500D01*
X132925003Y-67206346D01*
X132925003Y-67376460D01*
X132891816Y-67543306D01*
X132826716Y-67700471D01*
X132732205Y-67841916D01*
X132611916Y-67962205D01*
X132470471Y-68056716D01*
X132313306Y-68121816D01*
X132146460Y-68155003D01*
X131976346Y-68155003D01*
X131809500Y-68121816D01*
X131652335Y-68056716D01*
X131510890Y-67962205D01*
X131390601Y-67841916D01*
X131296090Y-67700471D01*
X131230990Y-67543306D01*
X131197803Y-67376460D01*
X131197803Y-67206346D01*
X131230990Y-67039500D01*
X131296090Y-66882335D01*
X131390601Y-66740890D01*
X131510890Y-66620601D01*
X131652335Y-66526090D01*
X131809500Y-66460990D01*
X131976346Y-66427803D01*
X132146460Y-66427803D01*
X132313306Y-66460990D01*
G37*
G36*
X129773306Y-66460990D02*
G01*
X129930471Y-66526090D01*
X130071916Y-66620601D01*
X130192205Y-66740890D01*
X130286716Y-66882335D01*
X130351816Y-67039500D01*
X130385003Y-67206346D01*
X130385003Y-67376460D01*
X130351816Y-67543306D01*
X130286716Y-67700471D01*
X130192205Y-67841916D01*
X130071916Y-67962205D01*
X129930471Y-68056716D01*
X129773306Y-68121816D01*
X129606460Y-68155003D01*
X129436346Y-68155003D01*
X129269500Y-68121816D01*
X129112335Y-68056716D01*
X128970890Y-67962205D01*
X128850601Y-67841916D01*
X128756090Y-67700471D01*
X128690990Y-67543306D01*
X128657803Y-67376460D01*
X128657803Y-67206346D01*
X128690990Y-67039500D01*
X128756090Y-66882335D01*
X128850601Y-66740890D01*
X128970890Y-66620601D01*
X129112335Y-66526090D01*
X129269500Y-66460990D01*
X129436346Y-66427803D01*
X129606460Y-66427803D01*
X129773306Y-66460990D01*
G37*
G36*
X155173306Y-66460990D02*
G01*
X155330471Y-66526090D01*
X155471916Y-66620601D01*
X155592205Y-66740890D01*
X155686716Y-66882335D01*
X155751816Y-67039500D01*
X155785003Y-67206346D01*
X155785003Y-67376460D01*
X155751816Y-67543306D01*
X155686716Y-67700471D01*
X155592205Y-67841916D01*
X155471916Y-67962205D01*
X155330471Y-68056716D01*
X155173306Y-68121816D01*
X155006460Y-68155003D01*
X154836346Y-68155003D01*
X154669500Y-68121816D01*
X154512335Y-68056716D01*
X154370890Y-67962205D01*
X154250601Y-67841916D01*
X154156090Y-67700471D01*
X154090990Y-67543306D01*
X154057803Y-67376460D01*
X154057803Y-67206346D01*
X154090990Y-67039500D01*
X154156090Y-66882335D01*
X154250601Y-66740890D01*
X154370890Y-66620601D01*
X154512335Y-66526090D01*
X154669500Y-66460990D01*
X154836346Y-66427803D01*
X155006460Y-66427803D01*
X155173306Y-66460990D01*
G37*
G36*
X119613306Y-66460990D02*
G01*
X119770471Y-66526090D01*
X119911916Y-66620601D01*
X120032205Y-66740890D01*
X120126716Y-66882335D01*
X120191816Y-67039500D01*
X120225003Y-67206346D01*
X120225003Y-67376460D01*
X120191816Y-67543306D01*
X120126716Y-67700471D01*
X120032205Y-67841916D01*
X119911916Y-67962205D01*
X119770471Y-68056716D01*
X119613306Y-68121816D01*
X119446460Y-68155003D01*
X119276346Y-68155003D01*
X119109500Y-68121816D01*
X118952335Y-68056716D01*
X118810890Y-67962205D01*
X118690601Y-67841916D01*
X118596090Y-67700471D01*
X118530990Y-67543306D01*
X118497803Y-67376460D01*
X118497803Y-67206346D01*
X118530990Y-67039500D01*
X118596090Y-66882335D01*
X118690601Y-66740890D01*
X118810890Y-66620601D01*
X118952335Y-66526090D01*
X119109500Y-66460990D01*
X119276346Y-66427803D01*
X119446460Y-66427803D01*
X119613306Y-66460990D01*
G37*
G36*
X152633306Y-66460990D02*
G01*
X152790471Y-66526090D01*
X152931916Y-66620601D01*
X153052205Y-66740890D01*
X153146716Y-66882335D01*
X153211816Y-67039500D01*
X153245003Y-67206346D01*
X153245003Y-67376460D01*
X153211816Y-67543306D01*
X153146716Y-67700471D01*
X153052205Y-67841916D01*
X152931916Y-67962205D01*
X152790471Y-68056716D01*
X152633306Y-68121816D01*
X152466460Y-68155003D01*
X152296346Y-68155003D01*
X152129500Y-68121816D01*
X151972335Y-68056716D01*
X151830890Y-67962205D01*
X151710601Y-67841916D01*
X151616090Y-67700471D01*
X151550990Y-67543306D01*
X151517803Y-67376460D01*
X151517803Y-67206346D01*
X151550990Y-67039500D01*
X151616090Y-66882335D01*
X151710601Y-66740890D01*
X151830890Y-66620601D01*
X151972335Y-66526090D01*
X152129500Y-66460990D01*
X152296346Y-66427803D01*
X152466460Y-66427803D01*
X152633306Y-66460990D01*
G37*
G36*
X150093306Y-66460990D02*
G01*
X150250471Y-66526090D01*
X150391916Y-66620601D01*
X150512205Y-66740890D01*
X150606716Y-66882335D01*
X150671816Y-67039500D01*
X150705003Y-67206346D01*
X150705003Y-67376460D01*
X150671816Y-67543306D01*
X150606716Y-67700471D01*
X150512205Y-67841916D01*
X150391916Y-67962205D01*
X150250471Y-68056716D01*
X150093306Y-68121816D01*
X149926460Y-68155003D01*
X149756346Y-68155003D01*
X149589500Y-68121816D01*
X149432335Y-68056716D01*
X149290890Y-67962205D01*
X149170601Y-67841916D01*
X149076090Y-67700471D01*
X149010990Y-67543306D01*
X148977803Y-67376460D01*
X148977803Y-67206346D01*
X149010990Y-67039500D01*
X149076090Y-66882335D01*
X149170601Y-66740890D01*
X149290890Y-66620601D01*
X149432335Y-66526090D01*
X149589500Y-66460990D01*
X149756346Y-66427803D01*
X149926460Y-66427803D01*
X150093306Y-66460990D01*
G37*
G36*
X147553306Y-66460990D02*
G01*
X147710471Y-66526090D01*
X147851916Y-66620601D01*
X147972205Y-66740890D01*
X148066716Y-66882335D01*
X148131816Y-67039500D01*
X148165003Y-67206346D01*
X148165003Y-67376460D01*
X148131816Y-67543306D01*
X148066716Y-67700471D01*
X147972205Y-67841916D01*
X147851916Y-67962205D01*
X147710471Y-68056716D01*
X147553306Y-68121816D01*
X147386460Y-68155003D01*
X147216346Y-68155003D01*
X147049500Y-68121816D01*
X146892335Y-68056716D01*
X146750890Y-67962205D01*
X146630601Y-67841916D01*
X146536090Y-67700471D01*
X146470990Y-67543306D01*
X146437803Y-67376460D01*
X146437803Y-67206346D01*
X146470990Y-67039500D01*
X146536090Y-66882335D01*
X146630601Y-66740890D01*
X146750890Y-66620601D01*
X146892335Y-66526090D01*
X147049500Y-66460990D01*
X147216346Y-66427803D01*
X147386460Y-66427803D01*
X147553306Y-66460990D01*
G37*
G36*
X145013306Y-66460990D02*
G01*
X145170471Y-66526090D01*
X145311916Y-66620601D01*
X145432205Y-66740890D01*
X145526716Y-66882335D01*
X145591816Y-67039500D01*
X145625003Y-67206346D01*
X145625003Y-67376460D01*
X145591816Y-67543306D01*
X145526716Y-67700471D01*
X145432205Y-67841916D01*
X145311916Y-67962205D01*
X145170471Y-68056716D01*
X145013306Y-68121816D01*
X144846460Y-68155003D01*
X144676346Y-68155003D01*
X144509500Y-68121816D01*
X144352335Y-68056716D01*
X144210890Y-67962205D01*
X144090601Y-67841916D01*
X143996090Y-67700471D01*
X143930990Y-67543306D01*
X143897803Y-67376460D01*
X143897803Y-67206346D01*
X143930990Y-67039500D01*
X143996090Y-66882335D01*
X144090601Y-66740890D01*
X144210890Y-66620601D01*
X144352335Y-66526090D01*
X144509500Y-66460990D01*
X144676346Y-66427803D01*
X144846460Y-66427803D01*
X145013306Y-66460990D01*
G37*
G36*
X142473306Y-66460990D02*
G01*
X142630471Y-66526090D01*
X142771916Y-66620601D01*
X142892205Y-66740890D01*
X142986716Y-66882335D01*
X143051816Y-67039500D01*
X143085003Y-67206346D01*
X143085003Y-67376460D01*
X143051816Y-67543306D01*
X142986716Y-67700471D01*
X142892205Y-67841916D01*
X142771916Y-67962205D01*
X142630471Y-68056716D01*
X142473306Y-68121816D01*
X142306460Y-68155003D01*
X142136346Y-68155003D01*
X141969500Y-68121816D01*
X141812335Y-68056716D01*
X141670890Y-67962205D01*
X141550601Y-67841916D01*
X141456090Y-67700471D01*
X141390990Y-67543306D01*
X141357803Y-67376460D01*
X141357803Y-67206346D01*
X141390990Y-67039500D01*
X141456090Y-66882335D01*
X141550601Y-66740890D01*
X141670890Y-66620601D01*
X141812335Y-66526090D01*
X141969500Y-66460990D01*
X142136346Y-66427803D01*
X142306460Y-66427803D01*
X142473306Y-66460990D01*
G37*
G36*
X137393306Y-66460990D02*
G01*
X137550471Y-66526090D01*
X137691916Y-66620601D01*
X137812205Y-66740890D01*
X137906716Y-66882335D01*
X137971816Y-67039500D01*
X138005003Y-67206346D01*
X138005003Y-67376460D01*
X137971816Y-67543306D01*
X137906716Y-67700471D01*
X137812205Y-67841916D01*
X137691916Y-67962205D01*
X137550471Y-68056716D01*
X137393306Y-68121816D01*
X137226460Y-68155003D01*
X137056346Y-68155003D01*
X136889500Y-68121816D01*
X136732335Y-68056716D01*
X136590890Y-67962205D01*
X136470601Y-67841916D01*
X136376090Y-67700471D01*
X136310990Y-67543306D01*
X136277803Y-67376460D01*
X136277803Y-67206346D01*
X136310990Y-67039500D01*
X136376090Y-66882335D01*
X136470601Y-66740890D01*
X136590890Y-66620601D01*
X136732335Y-66526090D01*
X136889500Y-66460990D01*
X137056346Y-66427803D01*
X137226460Y-66427803D01*
X137393306Y-66460990D01*
G37*
G36*
X127233306Y-66460990D02*
G01*
X127390471Y-66526090D01*
X127531916Y-66620601D01*
X127652205Y-66740890D01*
X127746716Y-66882335D01*
X127811816Y-67039500D01*
X127845003Y-67206346D01*
X127845003Y-67376460D01*
X127811816Y-67543306D01*
X127746716Y-67700471D01*
X127652205Y-67841916D01*
X127531916Y-67962205D01*
X127390471Y-68056716D01*
X127233306Y-68121816D01*
X127066460Y-68155003D01*
X126896346Y-68155003D01*
X126729500Y-68121816D01*
X126572335Y-68056716D01*
X126430890Y-67962205D01*
X126310601Y-67841916D01*
X126216090Y-67700471D01*
X126150990Y-67543306D01*
X126117803Y-67376460D01*
X126117803Y-67206346D01*
X126150990Y-67039500D01*
X126216090Y-66882335D01*
X126310601Y-66740890D01*
X126430890Y-66620601D01*
X126572335Y-66526090D01*
X126729500Y-66460990D01*
X126896346Y-66427803D01*
X127066460Y-66427803D01*
X127233306Y-66460990D01*
G37*
G36*
X124693306Y-66460990D02*
G01*
X124850471Y-66526090D01*
X124991916Y-66620601D01*
X125112205Y-66740890D01*
X125206716Y-66882335D01*
X125271816Y-67039500D01*
X125305003Y-67206346D01*
X125305003Y-67376460D01*
X125271816Y-67543306D01*
X125206716Y-67700471D01*
X125112205Y-67841916D01*
X124991916Y-67962205D01*
X124850471Y-68056716D01*
X124693306Y-68121816D01*
X124526460Y-68155003D01*
X124356346Y-68155003D01*
X124189500Y-68121816D01*
X124032335Y-68056716D01*
X123890890Y-67962205D01*
X123770601Y-67841916D01*
X123676090Y-67700471D01*
X123610990Y-67543306D01*
X123577803Y-67376460D01*
X123577803Y-67206346D01*
X123610990Y-67039500D01*
X123676090Y-66882335D01*
X123770601Y-66740890D01*
X123890890Y-66620601D01*
X124032335Y-66526090D01*
X124189500Y-66460990D01*
X124356346Y-66427803D01*
X124526460Y-66427803D01*
X124693306Y-66460990D01*
G37*
G36*
X122153306Y-66460990D02*
G01*
X122310471Y-66526090D01*
X122451916Y-66620601D01*
X122572205Y-66740890D01*
X122666716Y-66882335D01*
X122731816Y-67039500D01*
X122765003Y-67206346D01*
X122765003Y-67376460D01*
X122731816Y-67543306D01*
X122666716Y-67700471D01*
X122572205Y-67841916D01*
X122451916Y-67962205D01*
X122310471Y-68056716D01*
X122153306Y-68121816D01*
X121986460Y-68155003D01*
X121816346Y-68155003D01*
X121649500Y-68121816D01*
X121492335Y-68056716D01*
X121350890Y-67962205D01*
X121230601Y-67841916D01*
X121136090Y-67700471D01*
X121070990Y-67543306D01*
X121037803Y-67376460D01*
X121037803Y-67206346D01*
X121070990Y-67039500D01*
X121136090Y-66882335D01*
X121230601Y-66740890D01*
X121350890Y-66620601D01*
X121492335Y-66526090D01*
X121649500Y-66460990D01*
X121816346Y-66427803D01*
X121986460Y-66427803D01*
X122153306Y-66460990D01*
G37*
G36*
X117073306Y-66460990D02*
G01*
X117230471Y-66526090D01*
X117371916Y-66620601D01*
X117492205Y-66740890D01*
X117586716Y-66882335D01*
X117651816Y-67039500D01*
X117685003Y-67206346D01*
X117685003Y-67376460D01*
X117651816Y-67543306D01*
X117586716Y-67700471D01*
X117492205Y-67841916D01*
X117371916Y-67962205D01*
X117230471Y-68056716D01*
X117073306Y-68121816D01*
X116906460Y-68155003D01*
X116736346Y-68155003D01*
X116569500Y-68121816D01*
X116412335Y-68056716D01*
X116270890Y-67962205D01*
X116150601Y-67841916D01*
X116056090Y-67700471D01*
X115990990Y-67543306D01*
X115957803Y-67376460D01*
X115957803Y-67206346D01*
X115990990Y-67039500D01*
X116056090Y-66882335D01*
X116150601Y-66740890D01*
X116270890Y-66620601D01*
X116412335Y-66526090D01*
X116569500Y-66460990D01*
X116736346Y-66427803D01*
X116906460Y-66427803D01*
X117073306Y-66460990D01*
G37*
G36*
X111993306Y-66460990D02*
G01*
X112150471Y-66526090D01*
X112291916Y-66620601D01*
X112412205Y-66740890D01*
X112506716Y-66882335D01*
X112571816Y-67039500D01*
X112605003Y-67206346D01*
X112605003Y-67376460D01*
X112571816Y-67543306D01*
X112506716Y-67700471D01*
X112412205Y-67841916D01*
X112291916Y-67962205D01*
X112150471Y-68056716D01*
X111993306Y-68121816D01*
X111826460Y-68155003D01*
X111656346Y-68155003D01*
X111489500Y-68121816D01*
X111332335Y-68056716D01*
X111190890Y-67962205D01*
X111070601Y-67841916D01*
X110976090Y-67700471D01*
X110910990Y-67543306D01*
X110877803Y-67376460D01*
X110877803Y-67206346D01*
X110910990Y-67039500D01*
X110976090Y-66882335D01*
X111070601Y-66740890D01*
X111190890Y-66620601D01*
X111332335Y-66526090D01*
X111489500Y-66460990D01*
X111656346Y-66427803D01*
X111826460Y-66427803D01*
X111993306Y-66460990D01*
G37*
G36*
X134853306Y-66460990D02*
G01*
X135010471Y-66526090D01*
X135151916Y-66620601D01*
X135272205Y-66740890D01*
X135366716Y-66882335D01*
X135431816Y-67039500D01*
X135465003Y-67206346D01*
X135465003Y-67376460D01*
X135431816Y-67543306D01*
X135366716Y-67700471D01*
X135272205Y-67841916D01*
X135151916Y-67962205D01*
X135010471Y-68056716D01*
X134853306Y-68121816D01*
X134686460Y-68155003D01*
X134516346Y-68155003D01*
X134349500Y-68121816D01*
X134192335Y-68056716D01*
X134050890Y-67962205D01*
X133930601Y-67841916D01*
X133836090Y-67700471D01*
X133770990Y-67543306D01*
X133737803Y-67376460D01*
X133737803Y-67206346D01*
X133770990Y-67039500D01*
X133836090Y-66882335D01*
X133930601Y-66740890D01*
X134050890Y-66620601D01*
X134192335Y-66526090D01*
X134349500Y-66460990D01*
X134516346Y-66427803D01*
X134686460Y-66427803D01*
X134853306Y-66460990D01*
G37*
G36*
X139933306Y-66460990D02*
G01*
X140090471Y-66526090D01*
X140231916Y-66620601D01*
X140352205Y-66740890D01*
X140446716Y-66882335D01*
X140511816Y-67039500D01*
X140545003Y-67206346D01*
X140545003Y-67376460D01*
X140511816Y-67543306D01*
X140446716Y-67700471D01*
X140352205Y-67841916D01*
X140231916Y-67962205D01*
X140090471Y-68056716D01*
X139933306Y-68121816D01*
X139766460Y-68155003D01*
X139596346Y-68155003D01*
X139429500Y-68121816D01*
X139272335Y-68056716D01*
X139130890Y-67962205D01*
X139010601Y-67841916D01*
X138916090Y-67700471D01*
X138850990Y-67543306D01*
X138817803Y-67376460D01*
X138817803Y-67206346D01*
X138850990Y-67039500D01*
X138916090Y-66882335D01*
X139010601Y-66740890D01*
X139130890Y-66620601D01*
X139272335Y-66526090D01*
X139429500Y-66460990D01*
X139596346Y-66427803D01*
X139766460Y-66427803D01*
X139933306Y-66460990D01*
G37*
G36*
X170455880Y-61259776D02*
G01*
X170836593Y-61335504D01*
X171246249Y-61505189D01*
X171614929Y-61751534D01*
X171928466Y-62065071D01*
X172174811Y-62433751D01*
X172344496Y-62843407D01*
X172431000Y-63278296D01*
X172431000Y-63721704D01*
X172344496Y-64156593D01*
X172174811Y-64566249D01*
X171928466Y-64934929D01*
X171614929Y-65248466D01*
X171246249Y-65494811D01*
X170836593Y-65664496D01*
X170455880Y-65740224D01*
X170401705Y-65751000D01*
X169958295Y-65751000D01*
X169904120Y-65740224D01*
X169523407Y-65664496D01*
X169113751Y-65494811D01*
X168745071Y-65248466D01*
X168431534Y-64934929D01*
X168185189Y-64566249D01*
X168015504Y-64156593D01*
X167929000Y-63721704D01*
X167929000Y-63278296D01*
X168015504Y-62843407D01*
X168185189Y-62433751D01*
X168431534Y-62065071D01*
X168745071Y-61751534D01*
X169113751Y-61505189D01*
X169523407Y-61335504D01*
X169904120Y-61259776D01*
X169958295Y-61249000D01*
X170401705Y-61249000D01*
X170455880Y-61259776D01*
G37*
G36*
X98065880Y-61259776D02*
G01*
X98446593Y-61335504D01*
X98856249Y-61505189D01*
X99224929Y-61751534D01*
X99538466Y-62065071D01*
X99784811Y-62433751D01*
X99954496Y-62843407D01*
X100041000Y-63278296D01*
X100041000Y-63721704D01*
X99954496Y-64156593D01*
X99784811Y-64566249D01*
X99538466Y-64934929D01*
X99224929Y-65248466D01*
X98856249Y-65494811D01*
X98446593Y-65664496D01*
X98065880Y-65740224D01*
X98011705Y-65751000D01*
X97568295Y-65751000D01*
X97514120Y-65740224D01*
X97133407Y-65664496D01*
X96723751Y-65494811D01*
X96355071Y-65248466D01*
X96041534Y-64934929D01*
X95795189Y-64566249D01*
X95625504Y-64156593D01*
X95539000Y-63721704D01*
X95539000Y-63278296D01*
X95625504Y-62843407D01*
X95795189Y-62433751D01*
X96041534Y-62065071D01*
X96355071Y-61751534D01*
X96723751Y-61505189D01*
X97133407Y-61335504D01*
X97514120Y-61259776D01*
X97568295Y-61249000D01*
X98011705Y-61249000D01*
X98065880Y-61259776D01*
G37*
G36*
X139933306Y-63920990D02*
G01*
X140090471Y-63986090D01*
X140231916Y-64080601D01*
X140352205Y-64200890D01*
X140446716Y-64342335D01*
X140511816Y-64499500D01*
X140545003Y-64666346D01*
X140545003Y-64836460D01*
X140511816Y-65003306D01*
X140446716Y-65160471D01*
X140352205Y-65301916D01*
X140231916Y-65422205D01*
X140090471Y-65516716D01*
X139933306Y-65581816D01*
X139766460Y-65615003D01*
X139596346Y-65615003D01*
X139429500Y-65581816D01*
X139272335Y-65516716D01*
X139130890Y-65422205D01*
X139010601Y-65301916D01*
X138916090Y-65160471D01*
X138850990Y-65003306D01*
X138817803Y-64836460D01*
X138817803Y-64666346D01*
X138850990Y-64499500D01*
X138916090Y-64342335D01*
X139010601Y-64200890D01*
X139130890Y-64080601D01*
X139272335Y-63986090D01*
X139429500Y-63920990D01*
X139596346Y-63887803D01*
X139766460Y-63887803D01*
X139933306Y-63920990D01*
G37*
G36*
X142473306Y-63920990D02*
G01*
X142630471Y-63986090D01*
X142771916Y-64080601D01*
X142892205Y-64200890D01*
X142986716Y-64342335D01*
X143051816Y-64499500D01*
X143085003Y-64666346D01*
X143085003Y-64836460D01*
X143051816Y-65003306D01*
X142986716Y-65160471D01*
X142892205Y-65301916D01*
X142771916Y-65422205D01*
X142630471Y-65516716D01*
X142473306Y-65581816D01*
X142306460Y-65615003D01*
X142136346Y-65615003D01*
X141969500Y-65581816D01*
X141812335Y-65516716D01*
X141670890Y-65422205D01*
X141550601Y-65301916D01*
X141456090Y-65160471D01*
X141390990Y-65003306D01*
X141357803Y-64836460D01*
X141357803Y-64666346D01*
X141390990Y-64499500D01*
X141456090Y-64342335D01*
X141550601Y-64200890D01*
X141670890Y-64080601D01*
X141812335Y-63986090D01*
X141969500Y-63920990D01*
X142136346Y-63887803D01*
X142306460Y-63887803D01*
X142473306Y-63920990D01*
G37*
G36*
X114533306Y-63920990D02*
G01*
X114690471Y-63986090D01*
X114831916Y-64080601D01*
X114952205Y-64200890D01*
X115046716Y-64342335D01*
X115111816Y-64499500D01*
X115145003Y-64666346D01*
X115145003Y-64836460D01*
X115111816Y-65003306D01*
X115046716Y-65160471D01*
X114952205Y-65301916D01*
X114831916Y-65422205D01*
X114690471Y-65516716D01*
X114533306Y-65581816D01*
X114366460Y-65615003D01*
X114196346Y-65615003D01*
X114029500Y-65581816D01*
X113872335Y-65516716D01*
X113730890Y-65422205D01*
X113610601Y-65301916D01*
X113516090Y-65160471D01*
X113450990Y-65003306D01*
X113417803Y-64836460D01*
X113417803Y-64666346D01*
X113450990Y-64499500D01*
X113516090Y-64342335D01*
X113610601Y-64200890D01*
X113730890Y-64080601D01*
X113872335Y-63986090D01*
X114029500Y-63920990D01*
X114196346Y-63887803D01*
X114366460Y-63887803D01*
X114533306Y-63920990D01*
G37*
G36*
X122153306Y-63920990D02*
G01*
X122310471Y-63986090D01*
X122451916Y-64080601D01*
X122572205Y-64200890D01*
X122666716Y-64342335D01*
X122731816Y-64499500D01*
X122765003Y-64666346D01*
X122765003Y-64836460D01*
X122731816Y-65003306D01*
X122666716Y-65160471D01*
X122572205Y-65301916D01*
X122451916Y-65422205D01*
X122310471Y-65516716D01*
X122153306Y-65581816D01*
X121986460Y-65615003D01*
X121816346Y-65615003D01*
X121649500Y-65581816D01*
X121492335Y-65516716D01*
X121350890Y-65422205D01*
X121230601Y-65301916D01*
X121136090Y-65160471D01*
X121070990Y-65003306D01*
X121037803Y-64836460D01*
X121037803Y-64666346D01*
X121070990Y-64499500D01*
X121136090Y-64342335D01*
X121230601Y-64200890D01*
X121350890Y-64080601D01*
X121492335Y-63986090D01*
X121649500Y-63920990D01*
X121816346Y-63887803D01*
X121986460Y-63887803D01*
X122153306Y-63920990D01*
G37*
G36*
X117073306Y-63920990D02*
G01*
X117230471Y-63986090D01*
X117371916Y-64080601D01*
X117492205Y-64200890D01*
X117586716Y-64342335D01*
X117651816Y-64499500D01*
X117685003Y-64666346D01*
X117685003Y-64836460D01*
X117651816Y-65003306D01*
X117586716Y-65160471D01*
X117492205Y-65301916D01*
X117371916Y-65422205D01*
X117230471Y-65516716D01*
X117073306Y-65581816D01*
X116906460Y-65615003D01*
X116736346Y-65615003D01*
X116569500Y-65581816D01*
X116412335Y-65516716D01*
X116270890Y-65422205D01*
X116150601Y-65301916D01*
X116056090Y-65160471D01*
X115990990Y-65003306D01*
X115957803Y-64836460D01*
X115957803Y-64666346D01*
X115990990Y-64499500D01*
X116056090Y-64342335D01*
X116150601Y-64200890D01*
X116270890Y-64080601D01*
X116412335Y-63986090D01*
X116569500Y-63920990D01*
X116736346Y-63887803D01*
X116906460Y-63887803D01*
X117073306Y-63920990D01*
G37*
G36*
X137393306Y-63920990D02*
G01*
X137550471Y-63986090D01*
X137691916Y-64080601D01*
X137812205Y-64200890D01*
X137906716Y-64342335D01*
X137971816Y-64499500D01*
X138005003Y-64666346D01*
X138005003Y-64836460D01*
X137971816Y-65003306D01*
X137906716Y-65160471D01*
X137812205Y-65301916D01*
X137691916Y-65422205D01*
X137550471Y-65516716D01*
X137393306Y-65581816D01*
X137226460Y-65615003D01*
X137056346Y-65615003D01*
X136889500Y-65581816D01*
X136732335Y-65516716D01*
X136590890Y-65422205D01*
X136470601Y-65301916D01*
X136376090Y-65160471D01*
X136310990Y-65003306D01*
X136277803Y-64836460D01*
X136277803Y-64666346D01*
X136310990Y-64499500D01*
X136376090Y-64342335D01*
X136470601Y-64200890D01*
X136590890Y-64080601D01*
X136732335Y-63986090D01*
X136889500Y-63920990D01*
X137056346Y-63887803D01*
X137226460Y-63887803D01*
X137393306Y-63920990D01*
G37*
G36*
X119613306Y-63920990D02*
G01*
X119770471Y-63986090D01*
X119911916Y-64080601D01*
X120032205Y-64200890D01*
X120126716Y-64342335D01*
X120191816Y-64499500D01*
X120225003Y-64666346D01*
X120225003Y-64836460D01*
X120191816Y-65003306D01*
X120126716Y-65160471D01*
X120032205Y-65301916D01*
X119911916Y-65422205D01*
X119770471Y-65516716D01*
X119613306Y-65581816D01*
X119446460Y-65615003D01*
X119276346Y-65615003D01*
X119109500Y-65581816D01*
X118952335Y-65516716D01*
X118810890Y-65422205D01*
X118690601Y-65301916D01*
X118596090Y-65160471D01*
X118530990Y-65003306D01*
X118497803Y-64836460D01*
X118497803Y-64666346D01*
X118530990Y-64499500D01*
X118596090Y-64342335D01*
X118690601Y-64200890D01*
X118810890Y-64080601D01*
X118952335Y-63986090D01*
X119109500Y-63920990D01*
X119276346Y-63887803D01*
X119446460Y-63887803D01*
X119613306Y-63920990D01*
G37*
G36*
X127233306Y-63920990D02*
G01*
X127390471Y-63986090D01*
X127531916Y-64080601D01*
X127652205Y-64200890D01*
X127746716Y-64342335D01*
X127811816Y-64499500D01*
X127845003Y-64666346D01*
X127845003Y-64836460D01*
X127811816Y-65003306D01*
X127746716Y-65160471D01*
X127652205Y-65301916D01*
X127531916Y-65422205D01*
X127390471Y-65516716D01*
X127233306Y-65581816D01*
X127066460Y-65615003D01*
X126896346Y-65615003D01*
X126729500Y-65581816D01*
X126572335Y-65516716D01*
X126430890Y-65422205D01*
X126310601Y-65301916D01*
X126216090Y-65160471D01*
X126150990Y-65003306D01*
X126117803Y-64836460D01*
X126117803Y-64666346D01*
X126150990Y-64499500D01*
X126216090Y-64342335D01*
X126310601Y-64200890D01*
X126430890Y-64080601D01*
X126572335Y-63986090D01*
X126729500Y-63920990D01*
X126896346Y-63887803D01*
X127066460Y-63887803D01*
X127233306Y-63920990D01*
G37*
G36*
X145013306Y-63920990D02*
G01*
X145170471Y-63986090D01*
X145311916Y-64080601D01*
X145432205Y-64200890D01*
X145526716Y-64342335D01*
X145591816Y-64499500D01*
X145625003Y-64666346D01*
X145625003Y-64836460D01*
X145591816Y-65003306D01*
X145526716Y-65160471D01*
X145432205Y-65301916D01*
X145311916Y-65422205D01*
X145170471Y-65516716D01*
X145013306Y-65581816D01*
X144846460Y-65615003D01*
X144676346Y-65615003D01*
X144509500Y-65581816D01*
X144352335Y-65516716D01*
X144210890Y-65422205D01*
X144090601Y-65301916D01*
X143996090Y-65160471D01*
X143930990Y-65003306D01*
X143897803Y-64836460D01*
X143897803Y-64666346D01*
X143930990Y-64499500D01*
X143996090Y-64342335D01*
X144090601Y-64200890D01*
X144210890Y-64080601D01*
X144352335Y-63986090D01*
X144509500Y-63920990D01*
X144676346Y-63887803D01*
X144846460Y-63887803D01*
X145013306Y-63920990D01*
G37*
G36*
X150093306Y-63920990D02*
G01*
X150250471Y-63986090D01*
X150391916Y-64080601D01*
X150512205Y-64200890D01*
X150606716Y-64342335D01*
X150671816Y-64499500D01*
X150705003Y-64666346D01*
X150705003Y-64836460D01*
X150671816Y-65003306D01*
X150606716Y-65160471D01*
X150512205Y-65301916D01*
X150391916Y-65422205D01*
X150250471Y-65516716D01*
X150093306Y-65581816D01*
X149926460Y-65615003D01*
X149756346Y-65615003D01*
X149589500Y-65581816D01*
X149432335Y-65516716D01*
X149290890Y-65422205D01*
X149170601Y-65301916D01*
X149076090Y-65160471D01*
X149010990Y-65003306D01*
X148977803Y-64836460D01*
X148977803Y-64666346D01*
X149010990Y-64499500D01*
X149076090Y-64342335D01*
X149170601Y-64200890D01*
X149290890Y-64080601D01*
X149432335Y-63986090D01*
X149589500Y-63920990D01*
X149756346Y-63887803D01*
X149926460Y-63887803D01*
X150093306Y-63920990D01*
G37*
G36*
X147553306Y-63920990D02*
G01*
X147710471Y-63986090D01*
X147851916Y-64080601D01*
X147972205Y-64200890D01*
X148066716Y-64342335D01*
X148131816Y-64499500D01*
X148165003Y-64666346D01*
X148165003Y-64836460D01*
X148131816Y-65003306D01*
X148066716Y-65160471D01*
X147972205Y-65301916D01*
X147851916Y-65422205D01*
X147710471Y-65516716D01*
X147553306Y-65581816D01*
X147386460Y-65615003D01*
X147216346Y-65615003D01*
X147049500Y-65581816D01*
X146892335Y-65516716D01*
X146750890Y-65422205D01*
X146630601Y-65301916D01*
X146536090Y-65160471D01*
X146470990Y-65003306D01*
X146437803Y-64836460D01*
X146437803Y-64666346D01*
X146470990Y-64499500D01*
X146536090Y-64342335D01*
X146630601Y-64200890D01*
X146750890Y-64080601D01*
X146892335Y-63986090D01*
X147049500Y-63920990D01*
X147216346Y-63887803D01*
X147386460Y-63887803D01*
X147553306Y-63920990D01*
G37*
G36*
X124693306Y-63920990D02*
G01*
X124850471Y-63986090D01*
X124991916Y-64080601D01*
X125112205Y-64200890D01*
X125206716Y-64342335D01*
X125271816Y-64499500D01*
X125305003Y-64666346D01*
X125305003Y-64836460D01*
X125271816Y-65003306D01*
X125206716Y-65160471D01*
X125112205Y-65301916D01*
X124991916Y-65422205D01*
X124850471Y-65516716D01*
X124693306Y-65581816D01*
X124526460Y-65615003D01*
X124356346Y-65615003D01*
X124189500Y-65581816D01*
X124032335Y-65516716D01*
X123890890Y-65422205D01*
X123770601Y-65301916D01*
X123676090Y-65160471D01*
X123610990Y-65003306D01*
X123577803Y-64836460D01*
X123577803Y-64666346D01*
X123610990Y-64499500D01*
X123676090Y-64342335D01*
X123770601Y-64200890D01*
X123890890Y-64080601D01*
X124032335Y-63986090D01*
X124189500Y-63920990D01*
X124356346Y-63887803D01*
X124526460Y-63887803D01*
X124693306Y-63920990D01*
G37*
G36*
X111993306Y-63920990D02*
G01*
X112150471Y-63986090D01*
X112291916Y-64080601D01*
X112412205Y-64200890D01*
X112506716Y-64342335D01*
X112571816Y-64499500D01*
X112605003Y-64666346D01*
X112605003Y-64836460D01*
X112571816Y-65003306D01*
X112506716Y-65160471D01*
X112412205Y-65301916D01*
X112291916Y-65422205D01*
X112150471Y-65516716D01*
X111993306Y-65581816D01*
X111826460Y-65615003D01*
X111656346Y-65615003D01*
X111489500Y-65581816D01*
X111332335Y-65516716D01*
X111190890Y-65422205D01*
X111070601Y-65301916D01*
X110976090Y-65160471D01*
X110910990Y-65003306D01*
X110877803Y-64836460D01*
X110877803Y-64666346D01*
X110910990Y-64499500D01*
X110976090Y-64342335D01*
X111070601Y-64200890D01*
X111190890Y-64080601D01*
X111332335Y-63986090D01*
X111489500Y-63920990D01*
X111656346Y-63887803D01*
X111826460Y-63887803D01*
X111993306Y-63920990D01*
G37*
G36*
X129773306Y-63920990D02*
G01*
X129930471Y-63986090D01*
X130071916Y-64080601D01*
X130192205Y-64200890D01*
X130286716Y-64342335D01*
X130351816Y-64499500D01*
X130385003Y-64666346D01*
X130385003Y-64836460D01*
X130351816Y-65003306D01*
X130286716Y-65160471D01*
X130192205Y-65301916D01*
X130071916Y-65422205D01*
X129930471Y-65516716D01*
X129773306Y-65581816D01*
X129606460Y-65615003D01*
X129436346Y-65615003D01*
X129269500Y-65581816D01*
X129112335Y-65516716D01*
X128970890Y-65422205D01*
X128850601Y-65301916D01*
X128756090Y-65160471D01*
X128690990Y-65003306D01*
X128657803Y-64836460D01*
X128657803Y-64666346D01*
X128690990Y-64499500D01*
X128756090Y-64342335D01*
X128850601Y-64200890D01*
X128970890Y-64080601D01*
X129112335Y-63986090D01*
X129269500Y-63920990D01*
X129436346Y-63887803D01*
X129606460Y-63887803D01*
X129773306Y-63920990D01*
G37*
G36*
X132313306Y-63920990D02*
G01*
X132470471Y-63986090D01*
X132611916Y-64080601D01*
X132732205Y-64200890D01*
X132826716Y-64342335D01*
X132891816Y-64499500D01*
X132925003Y-64666346D01*
X132925003Y-64836460D01*
X132891816Y-65003306D01*
X132826716Y-65160471D01*
X132732205Y-65301916D01*
X132611916Y-65422205D01*
X132470471Y-65516716D01*
X132313306Y-65581816D01*
X132146460Y-65615003D01*
X131976346Y-65615003D01*
X131809500Y-65581816D01*
X131652335Y-65516716D01*
X131510890Y-65422205D01*
X131390601Y-65301916D01*
X131296090Y-65160471D01*
X131230990Y-65003306D01*
X131197803Y-64836460D01*
X131197803Y-64666346D01*
X131230990Y-64499500D01*
X131296090Y-64342335D01*
X131390601Y-64200890D01*
X131510890Y-64080601D01*
X131652335Y-63986090D01*
X131809500Y-63920990D01*
X131976346Y-63887803D01*
X132146460Y-63887803D01*
X132313306Y-63920990D01*
G37*
G36*
X134853306Y-63920990D02*
G01*
X135010471Y-63986090D01*
X135151916Y-64080601D01*
X135272205Y-64200890D01*
X135366716Y-64342335D01*
X135431816Y-64499500D01*
X135465003Y-64666346D01*
X135465003Y-64836460D01*
X135431816Y-65003306D01*
X135366716Y-65160471D01*
X135272205Y-65301916D01*
X135151916Y-65422205D01*
X135010471Y-65516716D01*
X134853306Y-65581816D01*
X134686460Y-65615003D01*
X134516346Y-65615003D01*
X134349500Y-65581816D01*
X134192335Y-65516716D01*
X134050890Y-65422205D01*
X133930601Y-65301916D01*
X133836090Y-65160471D01*
X133770990Y-65003306D01*
X133737803Y-64836460D01*
X133737803Y-64666346D01*
X133770990Y-64499500D01*
X133836090Y-64342335D01*
X133930601Y-64200890D01*
X134050890Y-64080601D01*
X134192335Y-63986090D01*
X134349500Y-63920990D01*
X134516346Y-63887803D01*
X134686460Y-63887803D01*
X134853306Y-63920990D01*
G37*
G36*
X152633306Y-63920990D02*
G01*
X152790471Y-63986090D01*
X152931916Y-64080601D01*
X153052205Y-64200890D01*
X153146716Y-64342335D01*
X153211816Y-64499500D01*
X153245003Y-64666346D01*
X153245003Y-64836460D01*
X153211816Y-65003306D01*
X153146716Y-65160471D01*
X153052205Y-65301916D01*
X152931916Y-65422205D01*
X152790471Y-65516716D01*
X152633306Y-65581816D01*
X152466460Y-65615003D01*
X152296346Y-65615003D01*
X152129500Y-65581816D01*
X151972335Y-65516716D01*
X151830890Y-65422205D01*
X151710601Y-65301916D01*
X151616090Y-65160471D01*
X151550990Y-65003306D01*
X151517803Y-64836460D01*
X151517803Y-64666346D01*
X151550990Y-64499500D01*
X151616090Y-64342335D01*
X151710601Y-64200890D01*
X151830890Y-64080601D01*
X151972335Y-63986090D01*
X152129500Y-63920990D01*
X152296346Y-63887803D01*
X152466460Y-63887803D01*
X152633306Y-63920990D01*
G37*
G36*
X155173306Y-63920990D02*
G01*
X155330471Y-63986090D01*
X155471916Y-64080601D01*
X155592205Y-64200890D01*
X155686716Y-64342335D01*
X155751816Y-64499500D01*
X155785003Y-64666346D01*
X155785003Y-64836460D01*
X155751816Y-65003306D01*
X155686716Y-65160471D01*
X155592205Y-65301916D01*
X155471916Y-65422205D01*
X155330471Y-65516716D01*
X155173306Y-65581816D01*
X155006460Y-65615003D01*
X154836346Y-65615003D01*
X154669500Y-65581816D01*
X154512335Y-65516716D01*
X154370890Y-65422205D01*
X154250601Y-65301916D01*
X154156090Y-65160471D01*
X154090990Y-65003306D01*
X154057803Y-64836460D01*
X154057803Y-64666346D01*
X154090990Y-64499500D01*
X154156090Y-64342335D01*
X154250601Y-64200890D01*
X154370890Y-64080601D01*
X154512335Y-63986090D01*
X154669500Y-63920990D01*
X154836346Y-63887803D01*
X155006460Y-63887803D01*
X155173306Y-63920990D01*
G37*
M02*
