G04 #@! TF.GenerationSoftware,KiCad,Pcbnew,(5.1.5-0-10_14)*
G04 #@! TF.CreationDate,2020-06-19T17:07:22+01:00*
G04 #@! TF.ProjectId,AIL_Workshop,41494c5f-576f-4726-9b73-686f702e6b69,rev?*
G04 #@! TF.SameCoordinates,Original*
G04 #@! TF.FileFunction,Paste,Top*
G04 #@! TF.FilePolarity,Positive*
%FSLAX46Y46*%
G04 Gerber Fmt 4.6, Leading zero omitted, Abs format (unit mm)*
G04 Created by KiCad (PCBNEW (5.1.5-0-10_14)) date 2020-06-19 17:07:22*
%MOMM*%
%LPD*%
G04 APERTURE LIST*
%ADD10C,0.100000*%
G04 APERTURE END LIST*
D10*
G36*
X146772691Y-97316053D02*
G01*
X146793926Y-97319203D01*
X146814750Y-97324419D01*
X146834962Y-97331651D01*
X146854368Y-97340830D01*
X146872781Y-97351866D01*
X146890024Y-97364654D01*
X146905930Y-97379070D01*
X146920346Y-97394976D01*
X146933134Y-97412219D01*
X146944170Y-97430632D01*
X146953349Y-97450038D01*
X146960581Y-97470250D01*
X146965797Y-97491074D01*
X146968947Y-97512309D01*
X146970000Y-97533750D01*
X146970000Y-98046250D01*
X146968947Y-98067691D01*
X146965797Y-98088926D01*
X146960581Y-98109750D01*
X146953349Y-98129962D01*
X146944170Y-98149368D01*
X146933134Y-98167781D01*
X146920346Y-98185024D01*
X146905930Y-98200930D01*
X146890024Y-98215346D01*
X146872781Y-98228134D01*
X146854368Y-98239170D01*
X146834962Y-98248349D01*
X146814750Y-98255581D01*
X146793926Y-98260797D01*
X146772691Y-98263947D01*
X146751250Y-98265000D01*
X146313750Y-98265000D01*
X146292309Y-98263947D01*
X146271074Y-98260797D01*
X146250250Y-98255581D01*
X146230038Y-98248349D01*
X146210632Y-98239170D01*
X146192219Y-98228134D01*
X146174976Y-98215346D01*
X146159070Y-98200930D01*
X146144654Y-98185024D01*
X146131866Y-98167781D01*
X146120830Y-98149368D01*
X146111651Y-98129962D01*
X146104419Y-98109750D01*
X146099203Y-98088926D01*
X146096053Y-98067691D01*
X146095000Y-98046250D01*
X146095000Y-97533750D01*
X146096053Y-97512309D01*
X146099203Y-97491074D01*
X146104419Y-97470250D01*
X146111651Y-97450038D01*
X146120830Y-97430632D01*
X146131866Y-97412219D01*
X146144654Y-97394976D01*
X146159070Y-97379070D01*
X146174976Y-97364654D01*
X146192219Y-97351866D01*
X146210632Y-97340830D01*
X146230038Y-97331651D01*
X146250250Y-97324419D01*
X146271074Y-97319203D01*
X146292309Y-97316053D01*
X146313750Y-97315000D01*
X146751250Y-97315000D01*
X146772691Y-97316053D01*
G37*
G36*
X148347691Y-97316053D02*
G01*
X148368926Y-97319203D01*
X148389750Y-97324419D01*
X148409962Y-97331651D01*
X148429368Y-97340830D01*
X148447781Y-97351866D01*
X148465024Y-97364654D01*
X148480930Y-97379070D01*
X148495346Y-97394976D01*
X148508134Y-97412219D01*
X148519170Y-97430632D01*
X148528349Y-97450038D01*
X148535581Y-97470250D01*
X148540797Y-97491074D01*
X148543947Y-97512309D01*
X148545000Y-97533750D01*
X148545000Y-98046250D01*
X148543947Y-98067691D01*
X148540797Y-98088926D01*
X148535581Y-98109750D01*
X148528349Y-98129962D01*
X148519170Y-98149368D01*
X148508134Y-98167781D01*
X148495346Y-98185024D01*
X148480930Y-98200930D01*
X148465024Y-98215346D01*
X148447781Y-98228134D01*
X148429368Y-98239170D01*
X148409962Y-98248349D01*
X148389750Y-98255581D01*
X148368926Y-98260797D01*
X148347691Y-98263947D01*
X148326250Y-98265000D01*
X147888750Y-98265000D01*
X147867309Y-98263947D01*
X147846074Y-98260797D01*
X147825250Y-98255581D01*
X147805038Y-98248349D01*
X147785632Y-98239170D01*
X147767219Y-98228134D01*
X147749976Y-98215346D01*
X147734070Y-98200930D01*
X147719654Y-98185024D01*
X147706866Y-98167781D01*
X147695830Y-98149368D01*
X147686651Y-98129962D01*
X147679419Y-98109750D01*
X147674203Y-98088926D01*
X147671053Y-98067691D01*
X147670000Y-98046250D01*
X147670000Y-97533750D01*
X147671053Y-97512309D01*
X147674203Y-97491074D01*
X147679419Y-97470250D01*
X147686651Y-97450038D01*
X147695830Y-97430632D01*
X147706866Y-97412219D01*
X147719654Y-97394976D01*
X147734070Y-97379070D01*
X147749976Y-97364654D01*
X147767219Y-97351866D01*
X147785632Y-97340830D01*
X147805038Y-97331651D01*
X147825250Y-97324419D01*
X147846074Y-97319203D01*
X147867309Y-97316053D01*
X147888750Y-97315000D01*
X148326250Y-97315000D01*
X148347691Y-97316053D01*
G37*
G36*
X120585191Y-95661054D02*
G01*
X120606426Y-95664204D01*
X120627250Y-95669420D01*
X120647462Y-95676652D01*
X120666868Y-95685831D01*
X120685281Y-95696867D01*
X120702524Y-95709655D01*
X120718430Y-95724071D01*
X120732846Y-95739977D01*
X120745634Y-95757220D01*
X120756670Y-95775633D01*
X120765849Y-95795039D01*
X120773081Y-95815251D01*
X120778297Y-95836075D01*
X120781447Y-95857310D01*
X120782500Y-95878751D01*
X120782500Y-96391251D01*
X120781447Y-96412692D01*
X120778297Y-96433927D01*
X120773081Y-96454751D01*
X120765849Y-96474963D01*
X120756670Y-96494369D01*
X120745634Y-96512782D01*
X120732846Y-96530025D01*
X120718430Y-96545931D01*
X120702524Y-96560347D01*
X120685281Y-96573135D01*
X120666868Y-96584171D01*
X120647462Y-96593350D01*
X120627250Y-96600582D01*
X120606426Y-96605798D01*
X120585191Y-96608948D01*
X120563750Y-96610001D01*
X120126250Y-96610001D01*
X120104809Y-96608948D01*
X120083574Y-96605798D01*
X120062750Y-96600582D01*
X120042538Y-96593350D01*
X120023132Y-96584171D01*
X120004719Y-96573135D01*
X119987476Y-96560347D01*
X119971570Y-96545931D01*
X119957154Y-96530025D01*
X119944366Y-96512782D01*
X119933330Y-96494369D01*
X119924151Y-96474963D01*
X119916919Y-96454751D01*
X119911703Y-96433927D01*
X119908553Y-96412692D01*
X119907500Y-96391251D01*
X119907500Y-95878751D01*
X119908553Y-95857310D01*
X119911703Y-95836075D01*
X119916919Y-95815251D01*
X119924151Y-95795039D01*
X119933330Y-95775633D01*
X119944366Y-95757220D01*
X119957154Y-95739977D01*
X119971570Y-95724071D01*
X119987476Y-95709655D01*
X120004719Y-95696867D01*
X120023132Y-95685831D01*
X120042538Y-95676652D01*
X120062750Y-95669420D01*
X120083574Y-95664204D01*
X120104809Y-95661054D01*
X120126250Y-95660001D01*
X120563750Y-95660001D01*
X120585191Y-95661054D01*
G37*
G36*
X122160191Y-95661054D02*
G01*
X122181426Y-95664204D01*
X122202250Y-95669420D01*
X122222462Y-95676652D01*
X122241868Y-95685831D01*
X122260281Y-95696867D01*
X122277524Y-95709655D01*
X122293430Y-95724071D01*
X122307846Y-95739977D01*
X122320634Y-95757220D01*
X122331670Y-95775633D01*
X122340849Y-95795039D01*
X122348081Y-95815251D01*
X122353297Y-95836075D01*
X122356447Y-95857310D01*
X122357500Y-95878751D01*
X122357500Y-96391251D01*
X122356447Y-96412692D01*
X122353297Y-96433927D01*
X122348081Y-96454751D01*
X122340849Y-96474963D01*
X122331670Y-96494369D01*
X122320634Y-96512782D01*
X122307846Y-96530025D01*
X122293430Y-96545931D01*
X122277524Y-96560347D01*
X122260281Y-96573135D01*
X122241868Y-96584171D01*
X122222462Y-96593350D01*
X122202250Y-96600582D01*
X122181426Y-96605798D01*
X122160191Y-96608948D01*
X122138750Y-96610001D01*
X121701250Y-96610001D01*
X121679809Y-96608948D01*
X121658574Y-96605798D01*
X121637750Y-96600582D01*
X121617538Y-96593350D01*
X121598132Y-96584171D01*
X121579719Y-96573135D01*
X121562476Y-96560347D01*
X121546570Y-96545931D01*
X121532154Y-96530025D01*
X121519366Y-96512782D01*
X121508330Y-96494369D01*
X121499151Y-96474963D01*
X121491919Y-96454751D01*
X121486703Y-96433927D01*
X121483553Y-96412692D01*
X121482500Y-96391251D01*
X121482500Y-95878751D01*
X121483553Y-95857310D01*
X121486703Y-95836075D01*
X121491919Y-95815251D01*
X121499151Y-95795039D01*
X121508330Y-95775633D01*
X121519366Y-95757220D01*
X121532154Y-95739977D01*
X121546570Y-95724071D01*
X121562476Y-95709655D01*
X121579719Y-95696867D01*
X121598132Y-95685831D01*
X121617538Y-95676652D01*
X121637750Y-95669420D01*
X121658574Y-95664204D01*
X121679809Y-95661054D01*
X121701250Y-95660001D01*
X122138750Y-95660001D01*
X122160191Y-95661054D01*
G37*
M02*
